<svg width="169" height="89" viewBox="0 0 169 89" fill="none" xmlns="http://www.w3.org/2000/svg">
<path d="M1.74574 12L2.91619 8.70455H7.62074L8.79119 12H10.2685L5.99574 0.363636H4.54119L0.268466 12H1.74574ZM3.35938 7.45455L5.22301 2.20455H5.31392L7.17756 7.45455H3.35938ZM13.2401 6.75C13.2401 5.22727 14.1832 4.36364 15.4673 4.36364C16.7116 4.36364 17.4673 5.17614 17.4673 6.54545V12H18.8082V6.45455C18.8082 4.22727 17.6207 3.15909 15.8537 3.15909C14.5355 3.15909 13.7173 3.75 13.3082 4.63636H13.1946V3.27273H11.8991V12H13.2401V6.75ZM25.7585 12H27.0994V3.27273H25.7585V12ZM26.4403 1.81818C26.9631 1.81818 27.3949 1.40909 27.3949 0.909091C27.3949 0.409091 26.9631 0 26.4403 0C25.9176 0 25.4858 0.409091 25.4858 0.909091C25.4858 1.40909 25.9176 1.81818 26.4403 1.81818ZM30.8963 6.75C30.8963 5.22727 31.8395 4.36364 33.1236 4.36364C34.3679 4.36364 35.1236 5.17614 35.1236 6.54545V12H36.4645V6.45455C36.4645 4.22727 35.277 3.15909 33.5099 3.15909C32.1918 3.15909 31.3736 3.75 30.9645 4.63636H30.8509V3.27273H29.5554V12H30.8963V6.75ZM38.9148 12H40.2557V3.27273H38.9148V12ZM39.5966 1.81818C40.1193 1.81818 40.5511 1.40909 40.5511 0.909091C40.5511 0.409091 40.1193 0 39.5966 0C39.0739 0 38.642 0.409091 38.642 0.909091C38.642 1.40909 39.0739 1.81818 39.5966 1.81818ZM46.5071 3.27273H44.6435V1.18182H43.3026V3.27273H41.9844V4.40909H43.3026V9.86364C43.3026 11.3864 44.5298 12.1136 45.6662 12.1136C46.1662 12.1136 46.4844 12.0227 46.6662 11.9545L46.3935 10.75C46.2798 10.7727 46.098 10.8182 45.8026 10.8182C45.2116 10.8182 44.6435 10.6364 44.6435 9.5V4.40909H46.5071V3.27273ZM48.5241 12H49.8651V3.27273H48.5241V12ZM49.206 1.81818C49.7287 1.81818 50.1605 1.40909 50.1605 0.909091C50.1605 0.409091 49.7287 0 49.206 0C48.6832 0 48.2514 0.409091 48.2514 0.909091C48.2514 1.40909 48.6832 1.81818 49.206 1.81818ZM54.8892 12.2045C56.4119 12.2045 57.2074 11.3864 57.4801 10.8182H57.5483V12H58.8892V6.25C58.8892 3.47727 56.7756 3.15909 55.6619 3.15909C54.3438 3.15909 52.8438 3.61364 52.1619 5.20455L53.4347 5.65909C53.7301 5.02273 54.429 4.34091 55.7074 4.34091C56.9403 4.34091 57.5483 4.99432 57.5483 6.11364V6.15909C57.5483 6.80682 56.8892 6.75 55.2983 6.95455C53.679 7.16477 51.9119 7.52273 51.9119 9.52273C51.9119 11.2273 53.2301 12.2045 54.8892 12.2045ZM55.0938 11C54.0256 11 53.2528 10.5227 53.2528 9.59091C53.2528 8.56818 54.1847 8.25 55.2301 8.11364C55.7983 8.04545 57.321 7.88636 57.5483 7.61364V8.84091C57.5483 9.93182 56.6847 11 55.0938 11ZM65.1321 3.27273H63.2685V1.18182H61.9276V3.27273H60.6094V4.40909H61.9276V9.86364C61.9276 11.3864 63.1548 12.1136 64.2912 12.1136C64.7912 12.1136 65.1094 12.0227 65.2912 11.9545L65.0185 10.75C64.9048 10.7727 64.723 10.8182 64.4276 10.8182C63.8366 10.8182 63.2685 10.6364 63.2685 9.5V4.40909H65.1321V3.27273ZM67.1491 12H68.4901V3.27273H67.1491V12ZM67.831 1.81818C68.3537 1.81818 68.7855 1.40909 68.7855 0.909091C68.7855 0.409091 68.3537 0 67.831 0C67.3082 0 66.8764 0.409091 66.8764 0.909091C66.8764 1.40909 67.3082 1.81818 67.831 1.81818ZM78.0824 3.27273H76.6278L74.2188 10.2273H74.1278L71.7188 3.27273H70.2642L73.4915 12H74.8551L78.0824 3.27273ZM83.1989 12.1818C84.9716 12.1818 86.267 11.2955 86.6761 9.97727L85.3807 9.61364C85.0398 10.5227 84.25 10.9773 83.1989 10.9773C81.625 10.9773 80.5398 9.96023 80.4773 8.09091H86.8125V7.52273C86.8125 4.27273 84.8807 3.15909 83.0625 3.15909C80.6989 3.15909 79.1307 5.02273 79.1307 7.70455C79.1307 10.3864 80.6761 12.1818 83.1989 12.1818ZM80.4773 6.93182C80.5682 5.57386 81.5284 4.36364 83.0625 4.36364C84.517 4.36364 85.4489 5.45455 85.4489 6.93182H80.4773ZM93.5341 12H94.8295V10.6591H94.9886C95.2841 11.1364 95.8523 12.1818 97.5341 12.1818C99.7159 12.1818 101.239 10.4318 101.239 7.65909C101.239 4.90909 99.7159 3.15909 97.5114 3.15909C95.8068 3.15909 95.2841 4.20455 94.9886 4.65909H94.875V0.363636H93.5341V12ZM94.8523 7.63636C94.8523 5.68182 95.7159 4.36364 97.3523 4.36364C99.0568 4.36364 99.8977 5.79545 99.8977 7.63636C99.8977 9.5 99.0341 10.9773 97.3523 10.9773C95.7386 10.9773 94.8523 9.61364 94.8523 7.63636ZM103.841 15.2727C105.051 15.2727 105.903 14.6307 106.409 13.2727L110.125 3.29545L108.659 3.27273L106.25 10.2273H106.159L103.75 3.27273H102.295L105.523 12.0455L105.273 12.7273C104.784 14.0568 104.182 14.1818 103.205 13.9318L102.864 15.1136C103 15.1818 103.386 15.2727 103.841 15.2727ZM120.172 12C123.717 12 125.717 9.79545 125.717 6.15909C125.717 2.54545 123.717 0.363636 120.331 0.363636H116.581V12H120.172ZM117.99 10.75V1.61364H120.24C122.967 1.61364 124.354 3.34091 124.354 6.15909C124.354 9 122.967 10.75 120.081 10.75H117.99ZM127.899 12H129.24V3.27273H127.899V12ZM128.581 1.81818C129.104 1.81818 129.536 1.40909 129.536 0.909091C129.536 0.409091 129.104 0 128.581 0C128.058 0 127.626 0.409091 127.626 0.909091C127.626 1.40909 128.058 1.81818 128.581 1.81818ZM137.878 5.22727C137.457 3.98864 136.514 3.15909 134.787 3.15909C132.946 3.15909 131.582 4.20455 131.582 5.68182C131.582 6.88636 132.298 7.69318 133.901 8.06818L135.355 8.40909C136.236 8.61364 136.651 9.03409 136.651 9.63636C136.651 10.3864 135.855 11 134.605 11C133.509 11 132.821 10.5284 132.582 9.59091L131.31 9.90909C131.622 11.392 132.844 12.1818 134.628 12.1818C136.656 12.1818 138.037 11.0739 138.037 9.56818C138.037 8.35227 137.276 7.58523 135.719 7.20455L134.423 6.88636C133.389 6.63068 132.923 6.28409 132.923 5.61364C132.923 4.86364 133.719 4.31818 134.787 4.31818C135.957 4.31818 136.44 4.96591 136.673 5.56818L137.878 5.22727ZM143.851 3.27273H141.987V1.18182H140.646V3.27273H139.328V4.40909H140.646V9.86364C140.646 11.3864 141.874 12.1136 143.01 12.1136C143.51 12.1136 143.828 12.0227 144.01 11.9545L143.737 10.75C143.624 10.7727 143.442 10.8182 143.146 10.8182C142.555 10.8182 141.987 10.6364 141.987 9.5V4.40909H143.851V3.27273ZM145.868 12H147.209V6.47727C147.209 5.29545 148.141 4.43182 149.413 4.43182C149.771 4.43182 150.141 4.5 150.232 4.52273V3.15909C150.078 3.14773 149.726 3.13636 149.527 3.13636C148.482 3.13636 147.572 3.72727 147.254 4.59091H147.163V3.27273H145.868V12ZM151.821 12H153.162V3.27273H151.821V12ZM152.503 1.81818C153.026 1.81818 153.457 1.40909 153.457 0.909091C153.457 0.409091 153.026 0 152.503 0C151.98 0 151.548 0.409091 151.548 0.909091C151.548 1.40909 151.98 1.81818 152.503 1.81818ZM159.163 12.1818C161.095 12.1818 162.368 11 162.595 9.45455H161.254C161.004 10.4091 160.209 10.9773 159.163 10.9773C157.572 10.9773 156.55 9.65909 156.55 7.63636C156.55 5.65909 157.595 4.36364 159.163 4.36364C160.345 4.36364 161.05 5.09091 161.254 5.88636H162.595C162.368 4.25 160.982 3.15909 159.141 3.15909C156.777 3.15909 155.209 5.02273 155.209 7.68182C155.209 10.2955 156.709 12.1818 159.163 12.1818ZM168.351 3.27273H166.487V1.18182H165.146V3.27273H163.828V4.40909H165.146V9.86364C165.146 11.3864 166.374 12.1136 167.51 12.1136C168.01 12.1136 168.328 12.0227 168.51 11.9545L168.237 10.75C168.124 10.7727 167.942 10.8182 167.646 10.8182C167.055 10.8182 166.487 10.6364 166.487 9.5V4.40909H168.351V3.27273ZM2.98011 31L4.15057 27.7045H8.85511L10.0256 31H11.5028L7.23011 19.3636H5.77557L1.50284 31H2.98011ZM4.59375 26.4545L6.45739 21.2045H6.5483L8.41193 26.4545H4.59375ZM16.429 31.1818C18.1108 31.1818 18.679 30.1364 18.9744 29.6591H19.1335V31H20.429V19.3636H19.0881V23.6591H18.9744C18.679 23.2045 18.1562 22.1591 16.4517 22.1591C14.2472 22.1591 12.7244 23.9091 12.7244 26.6591C12.7244 29.4318 14.2472 31.1818 16.429 31.1818ZM16.6108 29.9773C14.929 29.9773 14.0653 28.5 14.0653 26.6364C14.0653 24.7955 14.9062 23.3636 16.6108 23.3636C18.2472 23.3636 19.1108 24.6818 19.1108 26.6364C19.1108 28.6136 18.2244 29.9773 16.6108 29.9773ZM23.071 31H24.4119V25.5455C24.4119 24.267 25.3438 23.3636 26.3892 23.3636C27.4062 23.3636 28.1165 24.0284 28.1165 25.0227V31H29.4801V25.3182C29.4801 24.1932 30.1847 23.3636 31.4119 23.3636C32.3665 23.3636 33.1847 23.8693 33.1847 25.1591V31H34.5256V25.1591C34.5256 23.108 33.4233 22.1591 31.8665 22.1591C30.6165 22.1591 29.7017 22.733 29.2528 23.6364H29.1619C28.7301 22.7045 27.9688 22.1591 26.821 22.1591C25.6847 22.1591 24.8438 22.7045 24.4801 23.6364H24.3665V22.2727H23.071V31ZM36.9773 31H38.3182V22.2727H36.9773V31ZM37.6591 20.8182C38.1818 20.8182 38.6136 20.4091 38.6136 19.9091C38.6136 19.4091 38.1818 19 37.6591 19C37.1364 19 36.7045 19.4091 36.7045 19.9091C36.7045 20.4091 37.1364 20.8182 37.6591 20.8182ZM42.1151 25.75C42.1151 24.2273 43.0582 23.3636 44.3423 23.3636C45.5866 23.3636 46.3423 24.1761 46.3423 25.5455V31H47.6832V25.4545C47.6832 23.2273 46.4957 22.1591 44.7287 22.1591C43.4105 22.1591 42.5923 22.75 42.1832 23.6364H42.0696V22.2727H40.7741V31H42.1151V25.75ZM50.1335 31H51.4744V22.2727H50.1335V31ZM50.8153 20.8182C51.3381 20.8182 51.7699 20.4091 51.7699 19.9091C51.7699 19.4091 51.3381 19 50.8153 19C50.2926 19 49.8608 19.4091 49.8608 19.9091C49.8608 20.4091 50.2926 20.8182 50.8153 20.8182ZM60.1122 24.2273C59.6918 22.9886 58.7486 22.1591 57.0213 22.1591C55.1804 22.1591 53.8168 23.2045 53.8168 24.6818C53.8168 25.8864 54.5327 26.6932 56.1349 27.0682L57.5895 27.4091C58.4702 27.6136 58.8849 28.0341 58.8849 28.6364C58.8849 29.3864 58.0895 30 56.8395 30C55.7429 30 55.0554 29.5284 54.8168 28.5909L53.544 28.9091C53.8565 30.392 55.0781 31.1818 56.8622 31.1818C58.8906 31.1818 60.2713 30.0739 60.2713 28.5682C60.2713 27.3523 59.5099 26.5852 57.9531 26.2045L56.6577 25.8864C55.6236 25.6307 55.1577 25.2841 55.1577 24.6136C55.1577 23.8636 55.9531 23.3182 57.0213 23.3182C58.1918 23.3182 58.6747 23.9659 58.9077 24.5682L60.1122 24.2273ZM66.0852 22.2727H64.2216V20.1818H62.8807V22.2727H61.5625V23.4091H62.8807V28.8636C62.8807 30.3864 64.108 31.1136 65.2443 31.1136C65.7443 31.1136 66.0625 31.0227 66.2443 30.9545L65.9716 29.75C65.858 29.7727 65.6761 29.8182 65.3807 29.8182C64.7898 29.8182 64.2216 29.6364 64.2216 28.5V23.4091H66.0852V22.2727ZM68.1023 31H69.4432V25.4773C69.4432 24.2955 70.375 23.4318 71.6477 23.4318C72.0057 23.4318 72.375 23.5 72.4659 23.5227V22.1591C72.3125 22.1477 71.9602 22.1364 71.7614 22.1364C70.7159 22.1364 69.8068 22.7273 69.4886 23.5909H69.3977V22.2727H68.1023V31ZM76.6236 31.2045C78.1463 31.2045 78.9418 30.3864 79.2145 29.8182H79.2827V31H80.6236V25.25C80.6236 22.4773 78.5099 22.1591 77.3963 22.1591C76.0781 22.1591 74.5781 22.6136 73.8963 24.2045L75.169 24.6591C75.4645 24.0227 76.1634 23.3409 77.4418 23.3409C78.6747 23.3409 79.2827 23.9943 79.2827 25.1136V25.1591C79.2827 25.8068 78.6236 25.75 77.0327 25.9545C75.4134 26.1648 73.6463 26.5227 73.6463 28.5227C73.6463 30.2273 74.9645 31.2045 76.6236 31.2045ZM76.8281 30C75.7599 30 74.9872 29.5227 74.9872 28.5909C74.9872 27.5682 75.919 27.25 76.9645 27.1136C77.5327 27.0455 79.0554 26.8864 79.2827 26.6136V27.8409C79.2827 28.9318 78.419 30 76.8281 30ZM86.8665 22.2727H85.0028V20.1818H83.6619V22.2727H82.3438V23.4091H83.6619V28.8636C83.6619 30.3864 84.8892 31.1136 86.0256 31.1136C86.5256 31.1136 86.8438 31.0227 87.0256 30.9545L86.7528 29.75C86.6392 29.7727 86.4574 29.8182 86.1619 29.8182C85.571 29.8182 85.0028 29.6364 85.0028 28.5V23.4091H86.8665V22.2727ZM88.8835 31H90.2244V22.2727H88.8835V31ZM89.5653 20.8182C90.0881 20.8182 90.5199 20.4091 90.5199 19.9091C90.5199 19.4091 90.0881 19 89.5653 19C89.0426 19 88.6108 19.4091 88.6108 19.9091C88.6108 20.4091 89.0426 20.8182 89.5653 20.8182ZM96.2259 31.1818C98.5895 31.1818 100.18 29.3864 100.18 26.6818C100.18 23.9545 98.5895 22.1591 96.2259 22.1591C93.8622 22.1591 92.2713 23.9545 92.2713 26.6818C92.2713 29.3864 93.8622 31.1818 96.2259 31.1818ZM96.2259 29.9773C94.4304 29.9773 93.6122 28.4318 93.6122 26.6818C93.6122 24.9318 94.4304 23.3636 96.2259 23.3636C98.0213 23.3636 98.8395 24.9318 98.8395 26.6818C98.8395 28.4318 98.0213 29.9773 96.2259 29.9773ZM103.568 25.75C103.568 24.2273 104.511 23.3636 105.795 23.3636C107.04 23.3636 107.795 24.1761 107.795 25.5455V31H109.136V25.4545C109.136 23.2273 107.949 22.1591 106.182 22.1591C104.864 22.1591 104.045 22.75 103.636 23.6364H103.523V22.2727H102.227V31H103.568V25.75ZM113.587 29.4091H112.132L112.064 30.0455C111.899 31.5852 111.575 33.1193 111.428 33.8409H112.45C112.723 33.0682 113.303 31.3182 113.496 30.0227L113.587 29.4091ZM120.753 31H124.957C127.707 31 128.844 29.6591 128.844 27.9091C128.844 26.0682 127.571 25.0682 126.503 25V24.8864C127.503 24.6136 128.389 23.9545 128.389 22.4545C128.389 20.75 127.253 19.3636 124.821 19.3636H120.753V31ZM122.162 29.75V25.7045H125.026C126.548 25.7045 127.503 26.7273 127.503 27.9091C127.503 28.9318 126.798 29.75 124.957 29.75H122.162ZM122.162 24.4773V20.6136H124.821C126.366 20.6136 127.048 21.4318 127.048 22.4545C127.048 23.6818 126.048 24.4773 124.776 24.4773H122.162ZM133.545 31.2045C135.068 31.2045 135.864 30.3864 136.136 29.8182H136.205V31H137.545V25.25C137.545 22.4773 135.432 22.1591 134.318 22.1591C133 22.1591 131.5 22.6136 130.818 24.2045L132.091 24.6591C132.386 24.0227 133.085 23.3409 134.364 23.3409C135.597 23.3409 136.205 23.9943 136.205 25.1136V25.1591C136.205 25.8068 135.545 25.75 133.955 25.9545C132.335 26.1648 130.568 26.5227 130.568 28.5227C130.568 30.2273 131.886 31.2045 133.545 31.2045ZM133.75 30C132.682 30 131.909 29.5227 131.909 28.5909C131.909 27.5682 132.841 27.25 133.886 27.1136C134.455 27.0455 135.977 26.8864 136.205 26.6136V27.8409C136.205 28.9318 135.341 30 133.75 30ZM146.175 24.2273C145.754 22.9886 144.811 22.1591 143.084 22.1591C141.243 22.1591 139.879 23.2045 139.879 24.6818C139.879 25.8864 140.595 26.6932 142.197 27.0682L143.652 27.4091C144.533 27.6136 144.947 28.0341 144.947 28.6364C144.947 29.3864 144.152 30 142.902 30C141.805 30 141.118 29.5284 140.879 28.5909L139.607 28.9091C139.919 30.392 141.141 31.1818 142.925 31.1818C144.953 31.1818 146.334 30.0739 146.334 28.5682C146.334 27.3523 145.572 26.5852 144.016 26.2045L142.72 25.8864C141.686 25.6307 141.22 25.2841 141.22 24.6136C141.22 23.8636 142.016 23.3182 143.084 23.3182C144.254 23.3182 144.737 23.9659 144.97 24.5682L146.175 24.2273ZM152.148 22.2727H150.284V20.1818H148.943V22.2727H147.625V23.4091H148.943V28.8636C148.943 30.3864 150.17 31.1136 151.307 31.1136C151.807 31.1136 152.125 31.0227 152.307 30.9545L152.034 29.75C151.92 29.7727 151.739 29.8182 151.443 29.8182C150.852 29.8182 150.284 29.6364 150.284 28.5V23.4091H152.148V22.2727ZM156.733 31.2045C158.256 31.2045 159.051 30.3864 159.324 29.8182H159.392V31H160.733V25.25C160.733 22.4773 158.619 22.1591 157.506 22.1591C156.188 22.1591 154.688 22.6136 154.006 24.2045L155.278 24.6591C155.574 24.0227 156.273 23.3409 157.551 23.3409C158.784 23.3409 159.392 23.9943 159.392 25.1136V25.1591C159.392 25.8068 158.733 25.75 157.142 25.9545C155.523 26.1648 153.756 26.5227 153.756 28.5227C153.756 30.2273 155.074 31.2045 156.733 31.2045ZM156.938 30C155.869 30 155.097 29.5227 155.097 28.5909C155.097 27.5682 156.028 27.25 157.074 27.1136C157.642 27.0455 159.165 26.8864 159.392 26.6136V27.8409C159.392 28.9318 158.528 30 156.938 30ZM163.18 31H164.521V25.4773C164.521 24.2955 165.453 23.4318 166.726 23.4318C167.084 23.4318 167.453 23.5 167.544 23.5227V22.1591C167.391 22.1477 167.038 22.1364 166.839 22.1364C165.794 22.1364 164.885 22.7273 164.567 23.5909H164.476V22.2727H163.18V31ZM52.1456 61.4375C51.8217 58.75 49.7876 57.2045 47.0945 57.2045C44.0206 57.2045 41.674 59.375 41.674 63.1818C41.674 66.9773 43.9808 69.1591 47.0945 69.1591C50.0774 69.1591 51.8786 67.1761 52.1456 65.0341L49.657 65.0227C49.424 66.267 48.4467 66.983 47.1342 66.983C45.3672 66.983 44.1683 65.6705 44.1683 63.1818C44.1683 60.7614 45.3501 59.3807 47.1513 59.3807C48.4979 59.3807 49.4695 60.1591 49.657 61.4375H52.1456ZM57.8075 69.1705C60.4553 69.1705 62.103 67.358 62.103 64.6705C62.103 61.9659 60.4553 60.1591 57.8075 60.1591C55.1598 60.1591 53.5121 61.9659 53.5121 64.6705C53.5121 67.358 55.1598 69.1705 57.8075 69.1705ZM57.8189 67.2955C56.5973 67.2955 55.9723 66.1761 55.9723 64.6534C55.9723 63.1307 56.5973 62.0057 57.8189 62.0057C59.0178 62.0057 59.6428 63.1307 59.6428 64.6534C59.6428 66.1761 59.0178 67.2955 57.8189 67.2955ZM66.0973 63.9545C66.103 62.8295 66.7734 62.1705 67.7507 62.1705C68.7223 62.1705 69.3075 62.8068 69.3018 63.875V69H71.7223V63.4432C71.7223 61.4091 70.5291 60.1591 68.7109 60.1591C67.4155 60.1591 66.478 60.7955 66.0859 61.8125H65.9837V60.2727H63.6768V69H66.0973V63.9545ZM78.272 60.2727H76.63V58.1818H74.2095V60.2727H73.0163V62.0909H74.2095V66.6364C74.1982 68.3466 75.3629 69.1932 77.1186 69.1193C77.7436 69.0966 78.1868 68.9716 78.4311 68.892L78.0504 67.0909C77.9311 67.1136 77.6754 67.1705 77.4482 67.1705C76.9652 67.1705 76.63 66.9886 76.63 66.3182V62.0909H78.272V60.2727ZM82.3374 69.1648C83.6271 69.1648 84.4624 68.6023 84.8885 67.7898H84.9567V69H87.2521V63.1136C87.2521 61.0341 85.4908 60.1591 83.5476 60.1591C81.4567 60.1591 80.0817 61.1591 79.7464 62.75L81.9851 62.9318C82.1499 62.3523 82.6669 61.9261 83.5362 61.9261C84.3601 61.9261 84.8317 62.3409 84.8317 63.0568V63.0909C84.8317 63.6534 84.2351 63.7273 82.718 63.875C80.9908 64.0341 79.4396 64.6136 79.4396 66.5625C79.4396 68.2898 80.6726 69.1648 82.3374 69.1648ZM83.0305 67.4943C82.2862 67.4943 81.7521 67.1477 81.7521 66.483C81.7521 65.8011 82.3146 65.4659 83.1669 65.3466C83.6953 65.2727 84.5589 65.1477 84.8487 64.9545V65.8807C84.8487 66.7955 84.093 67.4943 83.0305 67.4943ZM93.0732 69.1705C95.397 69.1705 96.8572 67.8068 96.9709 65.8011H94.6868C94.5447 66.733 93.9311 67.2557 93.1016 67.2557C91.9709 67.2557 91.2379 66.3068 91.2379 64.6364C91.2379 62.9886 91.9766 62.0455 93.1016 62.0455C93.9879 62.0455 94.5561 62.6307 94.6868 63.5H96.9709C96.8686 61.483 95.3402 60.1591 93.0618 60.1591C90.4141 60.1591 88.7777 61.9943 88.7777 64.6705C88.7777 67.3239 90.3857 69.1705 93.0732 69.1705ZM103.163 60.2727H101.521V58.1818H99.1001V60.2727H97.907V62.0909H99.1001V66.6364C99.0888 68.3466 100.254 69.1932 102.009 69.1193C102.634 69.0966 103.077 68.9716 103.322 68.892L102.941 67.0909C102.822 67.1136 102.566 67.1705 102.339 67.1705C101.856 67.1705 101.521 66.9886 101.521 66.3182V62.0909H103.163V60.2727ZM115.675 57.3636V64.7102C115.675 66.0398 114.744 67 113.312 67C111.886 67 110.948 66.0398 110.948 64.7102V57.3636H108.488V64.9205C108.488 67.4659 110.408 69.1648 113.312 69.1648C116.204 69.1648 118.136 67.4659 118.136 64.9205V57.3636H115.675ZM127.376 62.7614C127.16 61.1534 125.864 60.1591 123.66 60.1591C121.427 60.1591 119.955 61.1932 119.961 62.875C119.955 64.1818 120.779 65.0284 122.484 65.3693L123.995 65.6705C124.756 65.8239 125.103 66.1023 125.114 66.5398C125.103 67.0568 124.54 67.4261 123.694 67.4261C122.83 67.4261 122.256 67.0568 122.109 66.3466L119.728 66.4716C119.955 68.142 121.376 69.1705 123.688 69.1705C125.95 69.1705 127.569 68.017 127.575 66.2955C127.569 65.0341 126.745 64.2784 125.052 63.9318L123.472 63.6136C122.66 63.4375 122.359 63.1591 122.364 62.7386C122.359 62.2159 122.95 61.875 123.7 61.875C124.54 61.875 125.04 62.3352 125.16 62.8977L127.376 62.7614ZM23.9879 85.9545H25.2607V82.8409H28.3743V81.5682H25.2607V78.4545H23.9879V81.5682H20.8743V82.8409H23.9879V85.9545ZM34.8075 76.2045C32.4439 76.1761 30.9212 77.9545 30.9212 80.0909C30.9212 82.3409 32.5803 83.9545 34.5803 83.9545C35.7848 83.9545 36.8075 83.3636 37.4439 82.4091H37.5348C37.5348 85.2727 36.4212 86.9091 34.6257 86.9091C33.3984 86.9091 32.6484 86.1364 32.3984 85.0682H31.0121C31.2848 86.9091 32.6712 88.1591 34.6257 88.1591C37.2393 88.1591 38.853 85.8409 38.853 81.7045C38.853 77.4318 36.7166 76.2273 34.8075 76.2045ZM34.8075 77.4545C36.2621 77.4545 37.3303 78.7045 37.3303 80.0682C37.3303 81.4545 36.1939 82.7045 34.7621 82.7045C33.3303 82.7045 32.2848 81.5455 32.2848 80.0909C32.2848 78.6364 33.3757 77.4545 34.8075 77.4545ZM45.1783 76.3636H43.7692L40.8601 78.2955V79.7273L43.701 77.8409H43.7692V88H45.1783V76.3636ZM56.8885 88.1591C59.2408 88.1875 60.7749 86.4148 60.7749 84.25C60.7749 82 59.1101 80.3864 57.1158 80.3864C55.9169 80.3864 54.8885 80.9716 54.2521 81.9318H54.1612C54.1669 79.0966 55.2692 77.4545 57.0703 77.4545C58.2976 77.4545 59.0362 78.2273 59.2976 79.2727H60.6839C60.3999 77.4659 59.0249 76.2045 57.0703 76.2045C54.451 76.2045 52.843 78.5227 52.843 82.6364C52.843 86.9375 54.9794 88.1364 56.8885 88.1591ZM56.8885 86.9091C55.4283 86.9091 54.3601 85.6648 54.3658 84.2727C54.3714 82.8807 55.4908 81.6364 56.9339 81.6364C58.3601 81.6364 59.4112 82.8068 59.4112 84.25C59.4112 85.7273 58.3146 86.9091 56.8885 86.9091ZM63.0092 88H70.3501V86.75H64.9411V86.6591L67.5547 83.8636C69.5547 81.7216 70.1456 80.7216 70.1456 79.4318C70.1456 77.6364 68.6911 76.2045 66.6456 76.2045C64.6058 76.2045 63.0547 77.5909 63.0547 79.6364H64.3956C64.3956 78.3125 65.2536 77.4318 66.6001 77.4318C67.8615 77.4318 68.8274 78.2045 68.8274 79.4318C68.8274 80.5057 68.1967 81.3011 66.8501 82.7727L63.0092 86.9773V88ZM76.5604 88.1591C78.9126 88.1875 80.4467 86.4148 80.4467 84.25C80.4467 82 78.782 80.3864 76.7876 80.3864C75.5888 80.3864 74.5604 80.9716 73.924 81.9318H73.8331C73.8388 79.0966 74.9411 77.4545 76.7422 77.4545C77.9695 77.4545 78.7081 78.2273 78.9695 79.2727H80.3558C80.0717 77.4659 78.6967 76.2045 76.7422 76.2045C74.1229 76.2045 72.5149 78.5227 72.5149 82.6364C72.5149 86.9375 74.6513 88.1364 76.5604 88.1591ZM76.5604 86.9091C75.1001 86.9091 74.032 85.6648 74.0376 84.2727C74.0433 82.8807 75.1626 81.6364 76.6058 81.6364C78.032 81.6364 79.0831 82.8068 79.0831 84.25C79.0831 85.7273 77.9865 86.9091 76.5604 86.9091ZM83.0447 88H84.522L89.7038 77.6818V76.3636H82.2493V77.6136H88.2493V77.7045L83.0447 88ZM95.3672 88.1591C97.9354 88.1591 99.4126 85.983 99.4126 82.1818C99.4126 78.4091 97.9126 76.2045 95.3672 76.2045C92.8217 76.2045 91.3217 78.4091 91.3217 82.1818C91.3217 85.983 92.799 88.1591 95.3672 88.1591ZM95.3672 86.9091C93.674 86.9091 92.6854 85.2102 92.6854 82.1818C92.6854 79.1591 93.6854 77.4318 95.3672 77.4318C97.049 77.4318 98.049 79.1591 98.049 82.1818C98.049 85.2102 97.0604 86.9091 95.3672 86.9091ZM101.572 88H108.913V86.75H103.504V86.6591L106.117 83.8636C108.117 81.7216 108.708 80.7216 108.708 79.4318C108.708 77.6364 107.254 76.2045 105.208 76.2045C103.168 76.2045 101.617 77.5909 101.617 79.6364H102.958C102.958 78.3125 103.816 77.4318 105.163 77.4318C106.424 77.4318 107.39 78.2045 107.39 79.4318C107.39 80.5057 106.759 81.3011 105.413 82.7727L101.572 86.9773V88ZM115.055 88.1591C117.623 88.1591 119.1 85.983 119.1 82.1818C119.1 78.4091 117.6 76.2045 115.055 76.2045C112.509 76.2045 111.009 78.4091 111.009 82.1818C111.009 85.983 112.487 88.1591 115.055 88.1591ZM115.055 86.9091C113.362 86.9091 112.373 85.2102 112.373 82.1818C112.373 79.1591 113.373 77.4318 115.055 77.4318C116.737 77.4318 117.737 79.1591 117.737 82.1818C117.737 85.2102 116.748 86.9091 115.055 86.9091ZM124.896 88.1591C127.112 88.1591 128.737 86.5227 128.737 84.2955C128.737 82.0398 127.168 80.3864 125.032 80.3864C124.248 80.3864 123.487 80.6648 123.009 81.0455H122.941L123.35 77.6136H128.214V76.3636H122.168L121.464 82.0909L122.782 82.25C123.265 81.9034 124.089 81.6534 124.805 81.6591C126.288 81.6705 127.373 82.7955 127.373 84.3182C127.373 85.8125 126.327 86.9091 124.896 86.9091C123.702 86.9091 122.754 86.142 122.646 85.0909H121.282C121.367 86.8636 122.896 88.1591 124.896 88.1591ZM134.721 88.1591C137.045 88.1591 138.664 86.8011 138.675 84.9091C138.664 83.4375 137.681 82.1875 136.425 81.9545V81.8864C137.516 81.6023 138.232 80.5341 138.244 79.2955C138.232 77.5227 136.744 76.2045 134.721 76.2045C132.675 76.2045 131.187 77.5227 131.198 79.2955C131.187 80.5341 131.903 81.6023 133.016 81.8864V81.9545C131.738 82.1875 130.755 83.4375 130.766 84.9091C130.755 86.8011 132.374 88.1591 134.721 88.1591ZM134.721 86.9091C133.124 86.9091 132.141 86.0909 132.153 84.8409C132.141 83.5284 133.227 82.5909 134.721 82.5909C136.192 82.5909 137.278 83.5284 137.289 84.8409C137.278 86.0909 136.295 86.9091 134.721 86.9091ZM134.721 81.3864C133.448 81.3864 132.55 80.5909 132.562 79.3864C132.55 78.2045 133.414 77.4318 134.721 77.4318C136.005 77.4318 136.869 78.2045 136.88 79.3864C136.869 80.5909 135.971 81.3864 134.721 81.3864ZM144.648 88.1591C147.217 88.1591 148.694 85.983 148.694 82.1818C148.694 78.4091 147.194 76.2045 144.648 76.2045C142.103 76.2045 140.603 78.4091 140.603 82.1818C140.603 85.983 142.08 88.1591 144.648 88.1591ZM144.648 86.9091C142.955 86.9091 141.967 85.2102 141.967 82.1818C141.967 79.1591 142.967 77.4318 144.648 77.4318C146.33 77.4318 147.33 79.1591 147.33 82.1818C147.33 85.2102 146.342 86.9091 144.648 86.9091Z" fill="black"/>
</svg>
