<svg width="22" height="22" viewBox="0 0 22 22" fill="none" xmlns="http://www.w3.org/2000/svg">
<path d="M11 0C4.92339 0 0 4.92339 0 11C0 17.0766 4.92339 22 11 22C17.0766 22 22 17.0766 22 11C22 4.92339 17.0766 0 11 0ZM4.19597 7.13669L5.74395 6.91492L6.43145 5.51331C6.56008 5.25605 6.91935 5.25605 7.04798 5.51331L7.73548 6.91492L9.28347 7.13669C9.55847 7.18105 9.67823 7.51815 9.47419 7.72218L8.34758 8.81331L8.61371 10.3613C8.65806 10.6363 8.37863 10.8492 8.12581 10.7117L6.74194 9.99314L5.35363 10.7161C5.10081 10.8536 4.82137 10.6407 4.86573 10.3657L5.13185 8.81774L4.00524 7.72661C3.80121 7.51814 3.92097 7.18105 4.19597 7.13669ZM11 18.8065C8.3121 18.8065 5.03427 17.1077 4.62177 14.6681C4.53306 14.1448 5.03427 13.7145 5.53992 13.8742C6.87944 14.3044 8.87097 14.5484 11 14.5484C13.129 14.5484 15.1206 14.3044 16.4601 13.8742C16.9702 13.7101 17.4625 14.1448 17.3782 14.6681C16.9657 17.1077 13.6879 18.8065 11 18.8065ZM17.9948 7.72218L16.8681 8.81331L17.1343 10.3613C17.1786 10.6363 16.8992 10.8492 16.6464 10.7117L15.2581 9.99314L13.8698 10.7161C13.6169 10.8536 13.3375 10.6407 13.3819 10.3657L13.648 8.81774L12.5214 7.72661C12.3218 7.52258 12.4371 7.18548 12.7121 7.14113L14.2601 6.91935L14.9476 5.51774C15.0762 5.26048 15.4355 5.26048 15.5641 5.51774L16.2516 6.91935L17.7996 7.14113C18.079 7.18105 18.1988 7.51815 17.9948 7.72218Z" fill="#4AB3FF"/>
</svg>
