<svg width="16" height="22" viewBox="0 0 16 22" fill="none" xmlns="http://www.w3.org/2000/svg">
<path d="M3.37306 20.2907C3.19472 21.0281 3.6289 21.7744 4.34308 21.9583C4.45183 21.9867 4.56059 21.9991 4.66809 21.9991C5.26518 21.9991 5.80853 21.5824 5.96062 20.958L7.01231 16.6196L4.81309 14.3517L3.37306 20.2907ZM3.99349 11.8639L5.70853 5.02725C5.79978 4.66546 5.57769 4.29894 5.21185 4.20828C3.38348 3.75625 1.53052 4.8558 1.07343 6.66475L0.0204882 10.8812C-0.0707637 11.243 0.151324 11.6095 0.517166 11.7002L3.16556 12.3554C3.53181 12.4457 3.90224 12.2257 3.99349 11.8639ZM15.3337 6.87487H14.6671C14.2987 6.87487 14.0004 7.18252 14.0004 7.56235V8.24984H12.5524L10.6032 6.2398C10.1411 5.76243 9.52569 5.49989 8.87151 5.49989C7.74566 5.49989 6.76855 6.28621 6.49521 7.41282L5.37352 12.0413C5.31773 12.2717 5.32072 12.513 5.3822 12.7419C5.44368 12.9707 5.56156 13.1792 5.72436 13.3471L9.33361 17.069V20.6246C9.33361 21.3838 9.9307 21.9996 10.667 21.9996C11.4032 21.9996 12.0003 21.3838 12.0003 20.6246V17.069C12.0003 16.3347 11.7228 15.6442 11.2191 15.1247L9.26819 13.1129C9.27444 13.0915 9.2886 13.0747 9.29402 13.0524L10.1228 9.63341L11.0574 10.5972C11.3074 10.855 11.6466 11.0002 11.9999 11.0002H14V21.3125C14 21.6924 14.2983 22 14.6666 22H15.3333C15.7017 22 16 21.6924 16 21.3125V7.56235C16.0004 7.18252 15.7021 6.87487 15.3337 6.87487ZM10.0003 4.12492C11.1049 4.12492 12.0003 3.20154 12.0003 2.06246C12.0003 0.92338 11.1049 0 10.0003 0C8.89568 0 8.00024 0.92338 8.00024 2.06246C8.00024 3.20154 8.89568 4.12492 10.0003 4.12492Z" fill="#FF814A"/>
</svg>
