<svg width="29" height="22" viewBox="0 0 29 22" fill="none" xmlns="http://www.w3.org/2000/svg">
<path d="M14.1155 5.70738L4.83371 13.1651V21.2142C4.83371 21.4226 4.91858 21.6225 5.06964 21.7698C5.2207 21.9172 5.42558 22 5.63921 22L11.2807 21.9858C11.4936 21.9847 11.6975 21.9015 11.8477 21.7542C11.9978 21.607 12.0822 21.4077 12.0821 21.2V16.4994C12.0821 16.291 12.167 16.0911 12.3181 15.9437C12.4691 15.7964 12.674 15.7136 12.8876 15.7136H16.1096C16.3232 15.7136 16.5281 15.7964 16.6792 15.9437C16.8302 16.0911 16.9151 16.291 16.9151 16.4994V21.1965C16.9148 21.2999 16.9354 21.4024 16.9757 21.498C17.016 21.5936 17.0753 21.6805 17.1501 21.7538C17.225 21.827 17.3139 21.8851 17.4118 21.9247C17.5097 21.9644 17.6146 21.9848 17.7206 21.9848L23.3601 22C23.5737 22 23.7786 21.9172 23.9296 21.7698C24.0807 21.6225 24.1656 21.4226 24.1656 21.2142V13.1597L14.8858 5.70738C14.7767 5.62159 14.6408 5.57481 14.5006 5.57481C14.3605 5.57481 14.2246 5.62159 14.1155 5.70738ZM28.777 10.7763L24.5683 7.39194V0.589351C24.5683 0.433046 24.5047 0.283142 24.3914 0.172617C24.2781 0.0620923 24.1244 0 23.9642 0H21.145C20.9847 0 20.8311 0.0620923 20.7178 0.172617C20.6045 0.283142 20.5408 0.433046 20.5408 0.589351V4.15542L16.0336 0.537783C15.6011 0.190547 15.0583 0.000694131 14.4981 0.000694131C13.938 0.000694131 13.3952 0.190547 12.9627 0.537783L0.219245 10.7763C0.158071 10.8256 0.10746 10.8862 0.0703024 10.9546C0.033145 11.023 0.0101697 11.0979 0.00268942 11.175C-0.0047909 11.2521 0.00337032 11.3299 0.0267067 11.4039C0.0500432 11.4779 0.0880975 11.5466 0.138695 11.6063L1.42245 13.1288C1.47291 13.1886 1.53498 13.2382 1.6051 13.2746C1.67521 13.3111 1.75201 13.3336 1.83108 13.3411C1.91016 13.3485 1.98996 13.3407 2.06592 13.318C2.14188 13.2953 2.21251 13.2582 2.27376 13.2088L14.1155 3.69376C14.2246 3.60797 14.3605 3.56119 14.5006 3.56119C14.6408 3.56119 14.7767 3.60797 14.8858 3.69376L26.728 13.2088C26.7892 13.2582 26.8597 13.2953 26.9356 13.3181C27.0114 13.3409 27.0911 13.3488 27.1701 13.3415C27.2491 13.3342 27.3259 13.3118 27.396 13.2756C27.4662 13.2393 27.5283 13.1899 27.5788 13.1303L28.8626 11.6078C28.9131 11.5478 28.951 11.4786 28.9741 11.4043C28.9972 11.33 29.0049 11.2519 28.997 11.1747C28.989 11.0974 28.9655 11.0224 28.9277 10.9541C28.89 10.8857 28.8388 10.8253 28.777 10.7763Z" fill="#98C451"/>
</svg>
