<svg width="25" height="22" viewBox="0 0 25 22" fill="none" xmlns="http://www.w3.org/2000/svg">
<path d="M24.0625 2.75C24.4423 2.75 24.75 2.44234 24.75 2.0625V0.6875C24.75 0.307656 24.4423 0 24.0625 0H0.6875C0.307656 0 0 0.307656 0 0.6875V2.0625C0 2.44234 0.307656 2.75 0.6875 2.75H1.37414V19.25H0.6875C0.307656 19.25 0 19.5577 0 19.9375V21.3125C0 21.6923 0.307656 22 0.6875 22H11V18.5625C11 18.1844 11.3094 17.875 11.6875 17.875H13.0625C13.4406 17.875 13.75 18.1844 13.75 18.5625V22H24.0625C24.4423 22 24.75 21.6923 24.75 21.3125V19.9375C24.75 19.5577 24.4423 19.25 24.0625 19.25H23.375V2.75H24.0625ZM11 4.675C11 4.4 11.275 4.125 11.55 4.125H13.2C13.475 4.125 13.75 4.4 13.75 4.675V6.325C13.75 6.6 13.475 6.875 13.2 6.875H11.55C11.275 6.875 11 6.6 11 6.325V4.675ZM11 8.8C11 8.525 11.275 8.25 11.55 8.25H13.2C13.475 8.25 13.75 8.525 13.75 8.8V10.45C13.75 10.725 13.475 11 13.2 11H11.55C11.275 11 11 10.725 11 10.45V8.8ZM5.5 4.675C5.5 4.4 5.775 4.125 6.05 4.125H7.7C7.975 4.125 8.25 4.4 8.25 4.675V6.325C8.25 6.6 7.975 6.875 7.7 6.875H6.05C5.775 6.875 5.5 6.6 5.5 6.325V4.675ZM7.7 11H6.05C5.775 11 5.5 10.725 5.5 10.45V8.8C5.5 8.525 5.775 8.25 6.05 8.25H7.7C7.975 8.25 8.25 8.525 8.25 8.8V10.45C8.25 10.725 7.975 11 7.7 11ZM8.25 16.5C8.25 14.2218 10.0968 12.375 12.375 12.375C14.6532 12.375 16.5 14.2218 16.5 16.5H8.25ZM19.25 10.45C19.25 10.725 18.975 11 18.7 11H17.05C16.775 11 16.5 10.725 16.5 10.45V8.8C16.5 8.525 16.775 8.25 17.05 8.25H18.7C18.975 8.25 19.25 8.525 19.25 8.8V10.45ZM19.25 6.325C19.25 6.6 18.975 6.875 18.7 6.875H17.05C16.775 6.875 16.5 6.6 16.5 6.325V4.675C16.5 4.4 16.775 4.125 17.05 4.125H18.7C18.975 4.125 19.25 4.4 19.25 4.675V6.325Z" fill="#FF4A68"/>
</svg>
