<svg width="19" height="22" viewBox="0 0 19 22" fill="none" xmlns="http://www.w3.org/2000/svg">
<path d="M5.49728 7.5625H7.15511C7.2183 6.40105 7.43248 5.35605 7.75777 4.53707C6.58257 5.10598 5.7212 6.22102 5.49728 7.5625ZM5.49728 8.9375C5.72163 10.279 6.58257 11.394 7.75777 11.9629C7.43205 11.1439 7.2183 10.0989 7.15511 8.9375H5.49728ZM9.5 12.3187C9.82614 11.9986 10.3809 10.8397 10.4937 8.9375H8.50589C8.61913 10.8393 9.17386 11.9986 9.5 12.3187ZM8.50632 7.5625H10.4941C10.3813 5.6607 9.82656 4.50141 9.50042 4.18129C9.17386 4.50141 8.61913 5.6607 8.50632 7.5625ZM11.2422 11.9629C12.4174 11.394 13.2788 10.279 13.5027 8.9375H11.8449C11.7817 10.0989 11.5679 11.1439 11.2422 11.9629ZM17.6429 0H2.71429C1.21507 0 0 1.23105 0 2.75V19.25C0 20.7689 1.21507 22 2.71429 22H17.6429C18.3923 22 19 21.3843 19 20.625V1.375C19 0.615742 18.3923 0 17.6429 0ZM14.25 17.875H4.75C4.37679 17.875 4.07143 17.5656 4.07143 17.1875C4.07143 16.8094 4.37679 16.5 4.75 16.5H14.25C14.6232 16.5 14.9286 16.8094 14.9286 17.1875C14.9286 17.5656 14.6232 17.875 14.25 17.875ZM9.5 13.75C6.50199 13.75 4.07143 11.2875 4.07143 8.25C4.07143 5.21254 6.50199 2.75 9.5 2.75C12.498 2.75 14.9286 5.21254 14.9286 8.25C14.9286 11.2875 12.498 13.75 9.5 13.75ZM11.2422 4.53707C11.5679 5.35605 11.7817 6.40105 11.8449 7.5625H13.5027C13.2788 6.22102 12.4174 5.10598 11.2422 4.53707Z" fill="#BF36FF"/>
</svg>
