<svg width="23" height="21" viewBox="0 0 23 21" fill="none" xmlns="http://www.w3.org/2000/svg">
<path d="M5.85108 20.4774H17.149V2.82447C17.149 1.67703 16.178 0.706116 15.0306 0.706116H7.96944C6.77786 0.706116 5.85108 1.67703 5.85108 2.82447V20.4774ZM8.67555 3.53058H14.3245V4.94282H8.67555V3.53058ZM22.7979 7.06117C22.7979 5.91373 21.827 4.94282 20.6795 4.94282H18.5612V20.4774H20.6795C21.827 20.4774 22.7979 19.5506 22.7979 18.359V7.06117ZM4.43885 20.4774V4.94282H2.3205C1.12893 4.94282 0.202148 5.91373 0.202148 7.06117V18.359C0.202148 19.5506 1.12893 20.4774 2.3205 20.4774H4.43885Z" fill="#C4C4C4"/>
</svg>
