<svg width="23" height="21" viewBox="0 0 23 21" fill="none" xmlns="http://www.w3.org/2000/svg">
<path d="M5.85105 20.02H17.1489V2.36707C17.1489 1.21963 16.178 0.248718 15.0306 0.248718H7.96941C6.77783 0.248718 5.85105 1.21963 5.85105 2.36707V20.02ZM8.67552 3.07319H14.3245V4.48542H8.67552V3.07319ZM22.7979 6.60377C22.7979 5.45633 21.827 4.48542 20.6795 4.48542H18.5612V20.02H20.6795C21.827 20.02 22.7979 19.0932 22.7979 17.9016V6.60377ZM4.43882 20.02V4.48542H2.32047C1.1289 4.48542 0.202118 5.45633 0.202118 6.60377V17.9016C0.202118 19.0932 1.1289 20.02 2.32047 20.02H4.43882Z" fill="#1CBD40"/>
</svg>
