<svg width="16" height="28" viewBox="0 0 16 28" fill="none" xmlns="http://www.w3.org/2000/svg">
<path d="M14 12.7577H2C0.895417 12.7577 0 13.6811 0 14.8202V24.4452C0 25.5843 0.895417 26.5077 2 26.5077H2.66667V27.1952C2.66667 27.575 2.965 27.8827 3.33333 27.8827H4.66667C5.035 27.8827 5.33333 27.575 5.33333 27.1952V26.5077H10.6667V27.1952C10.6667 27.575 10.965 27.8827 11.3333 27.8827H12.6667C13.035 27.8827 13.3333 27.575 13.3333 27.1952V26.5077H14C15.1046 26.5077 16 25.5843 16 24.4452V14.8202C16 13.6811 15.1046 12.7577 14 12.7577ZM13.3333 22.0389C13.3333 22.2288 13.1842 22.3827 13 22.3827H3C2.81583 22.3827 2.66667 22.2288 2.66667 22.0389V21.3514C2.66667 21.1615 2.81583 21.0077 3 21.0077H13C13.1842 21.0077 13.3333 21.1615 13.3333 21.3514V22.0389ZM13.3333 17.9139C13.3333 18.1038 13.1842 18.2577 13 18.2577H3C2.81583 18.2577 2.66667 18.1038 2.66667 17.9139V17.2264C2.66667 17.0365 2.81583 16.8827 3 16.8827H13C13.1842 16.8827 13.3333 17.0365 13.3333 17.2264V17.9139Z" fill="#FFC803"/>
<path d="M7.18843 0.382647L5.72376 3.22683L2.44676 3.68439C1.85909 3.76602 1.62358 4.45988 2.04975 4.85729L4.42058 7.06991L3.85984 10.1955C3.7589 10.7605 4.38021 11.1837 4.90058 10.9194L7.83217 9.44364L10.7638 10.9194C11.2841 11.1815 11.9054 10.7605 11.8045 10.1955L11.2438 7.06991L13.6146 4.85729C14.0408 4.45988 13.8052 3.76602 13.2176 3.68439L9.94058 3.22683L8.47591 0.382647C8.21348 -0.124322 7.4531 -0.130766 7.18843 0.382647Z" fill="#FFC803"/>
</svg>
