<svg width="23" height="23" viewBox="0 0 23 23" fill="none" xmlns="http://www.w3.org/2000/svg">
<path d="M11.5 12.7101C14.9865 12.7101 17.8551 9.88564 17.8551 6.35505C17.8551 2.8686 14.9865 0 11.5 0C7.96944 0 5.14497 2.8686 5.14497 6.35505C5.14497 9.88564 7.96944 12.7101 11.5 12.7101ZM17.149 14.1223H14.6775C13.7066 14.6078 12.6475 14.8285 11.5 14.8285C10.3526 14.8285 9.24927 14.6078 8.27836 14.1223H5.85108C2.71769 14.1223 0.202148 16.682 0.202148 19.7713V20.4774C0.202148 21.669 1.12893 22.5957 2.3205 22.5957H20.6795C21.827 22.5957 22.7979 21.669 22.7979 20.4774V19.7713C22.7979 16.682 20.2382 14.1223 17.149 14.1223Z" fill="#C4C4C4"/>
</svg>
