<svg width="23" height="23" viewBox="0 0 23 23" fill="none" xmlns="http://www.w3.org/2000/svg">
<path d="M11.5 13.024C14.9865 13.024 17.8551 10.1995 17.8551 6.66896C17.8551 3.1825 14.9865 0.313904 11.5 0.313904C7.96944 0.313904 5.14497 3.1825 5.14497 6.66896C5.14497 10.1995 7.96944 13.024 11.5 13.024ZM17.149 14.4362H14.6775C13.7066 14.9217 12.6475 15.1424 11.5 15.1424C10.3526 15.1424 9.24927 14.9217 8.27836 14.4362H5.85108C2.71769 14.4362 0.202148 16.9959 0.202148 20.0852V20.7913C0.202148 21.9829 1.12893 22.9096 2.3205 22.9096H20.6795C21.827 22.9096 22.7979 21.9829 22.7979 20.7913V20.0852C22.7979 16.9959 20.2382 14.4362 17.149 14.4362Z" fill="#4AB3FF"/>
</svg>
