<svg width="26" height="22" viewBox="0 0 26 22" fill="none" xmlns="http://www.w3.org/2000/svg">
<path d="M23.4031 10.2363L22.3289 6.09375C21.8601 4.375 20.2976 3.125 18.5789 3.125H18.032V1.5625C18.032 0.699707 17.3323 0 16.4695 0H10.2195C9.35669 0 8.65698 0.699707 8.65698 1.5625V3.125H8.11011C6.39136 3.125 4.82886 4.375 4.36011 6.09375L3.28589 10.2363C1.88989 10.5488 0.844482 11.7905 0.844482 13.2812V15.625C0.844482 16.7788 1.47681 17.7754 2.40698 18.3164V20.3125C2.40698 21.1753 3.10669 21.875 3.96948 21.875H5.53198C6.39478 21.875 7.09448 21.1753 7.09448 20.3125V18.75H19.5945V20.3125C19.5945 21.1753 20.2942 21.875 21.157 21.875H22.7195C23.5823 21.875 24.282 21.1753 24.282 20.3125V18.3164C25.2122 17.7749 25.8445 16.7783 25.8445 15.625V13.2812C25.8445 11.7905 24.7991 10.5488 23.4031 10.2363ZM5.53198 15.625C4.66919 15.625 3.96948 14.9253 3.96948 14.0625C3.96948 13.1997 4.66919 12.5 5.53198 12.5C6.39478 12.5 7.09448 13.1997 7.09448 14.0625C7.09448 14.9253 6.39478 15.625 5.53198 15.625ZM6.5354 10.1562L7.37524 6.91602C7.48413 6.51758 7.84351 6.25 8.1106 6.25H18.5793C18.8464 6.25 19.2058 6.51758 19.3044 6.87793L20.1536 10.1562H6.5354ZM21.157 15.625C20.2942 15.625 19.5945 14.9253 19.5945 14.0625C19.5945 13.1997 20.2942 12.5 21.157 12.5C22.0198 12.5 22.7195 13.1997 22.7195 14.0625C22.7195 14.9253 22.0198 15.625 21.157 15.625Z" fill="#3C7D7D"/>
</svg>
