<svg width="27" height="18" viewBox="0 0 27 18" fill="none" xmlns="http://www.w3.org/2000/svg">
<path d="M6 4.5H21V13.5H6V4.5ZM24.75 9C24.75 10.2427 25.7573 11.25 27 11.25V15.75C27 16.9927 25.9927 18 24.75 18H2.25C1.00734 18 0 16.9927 0 15.75V11.25C1.24266 11.25 2.25 10.2427 2.25 9C2.25 7.75734 1.24266 6.75 0 6.75V2.25C0 1.00734 1.00734 0 2.25 0H24.75C25.9927 0 27 1.00734 27 2.25V6.75C25.7573 6.75 24.75 7.75734 24.75 9ZM22.5 4.125C22.5 3.50367 21.9963 3 21.375 3H5.625C5.00367 3 4.5 3.50367 4.5 4.125V13.875C4.5 14.4963 5.00367 15 5.625 15H21.375C21.9963 15 22.5 14.4963 22.5 13.875V4.125Z" fill="#0FA453"/>
</svg>
