<svg width="232" height="134" viewBox="0 0 232 134" fill="none" xmlns="http://www.w3.org/2000/svg">
<path d="M0.409091 12H1.81818V6.79545H6.86364V5.54545H1.81818V1.61364H7.38636V0.363636H0.409091V12ZM12.5227 12.1818C14.8864 12.1818 16.4773 10.3864 16.4773 7.68182C16.4773 4.95455 14.8864 3.15909 12.5227 3.15909C10.1591 3.15909 8.56818 4.95455 8.56818 7.68182C8.56818 10.3864 10.1591 12.1818 12.5227 12.1818ZM12.5227 10.9773C10.7273 10.9773 9.90909 9.43182 9.90909 7.68182C9.90909 5.93182 10.7273 4.36364 12.5227 4.36364C14.3182 4.36364 15.1364 5.93182 15.1364 7.68182C15.1364 9.43182 14.3182 10.9773 12.5227 10.9773ZM18.5241 12H19.8651V6.47727C19.8651 5.29545 20.7969 4.43182 22.0696 4.43182C22.4276 4.43182 22.7969 4.5 22.8878 4.52273V3.15909C22.7344 3.14773 22.3821 3.13636 22.1832 3.13636C21.1378 3.13636 20.2287 3.72727 19.9105 4.59091H19.8196V3.27273H18.5241V12ZM38.9773 6.18182C38.9773 2.5 36.8182 0.204545 33.8409 0.204545C30.8636 0.204545 28.7045 2.5 28.7045 6.18182C28.7045 9.86364 30.8636 12.1591 33.8409 12.1591C36.8182 12.1591 38.9773 9.86364 38.9773 6.18182ZM37.6136 6.18182C37.6136 9.20455 35.9545 10.8409 33.8409 10.8409C31.7273 10.8409 30.0682 9.20455 30.0682 6.18182C30.0682 3.15909 31.7273 1.52273 33.8409 1.52273C35.9545 1.52273 37.6136 3.15909 37.6136 6.18182ZM41.1648 15.2727H42.5057V10.6591H42.6193C42.9148 11.1364 43.483 12.1818 45.1648 12.1818C47.3466 12.1818 48.8693 10.4318 48.8693 7.65909C48.8693 4.90909 47.3466 3.15909 45.142 3.15909C43.4375 3.15909 42.9148 4.20455 42.6193 4.65909H42.4602V3.27273H41.1648V15.2727ZM42.483 7.63636C42.483 5.68182 43.3466 4.36364 44.983 4.36364C46.6875 4.36364 47.5284 5.79545 47.5284 7.63636C47.5284 9.5 46.6648 10.9773 44.983 10.9773C43.3693 10.9773 42.483 9.61364 42.483 7.63636ZM54.5739 12.1818C56.3466 12.1818 57.642 11.2955 58.0511 9.97727L56.7557 9.61364C56.4148 10.5227 55.625 10.9773 54.5739 10.9773C53 10.9773 51.9148 9.96023 51.8523 8.09091H58.1875V7.52273C58.1875 4.27273 56.2557 3.15909 54.4375 3.15909C52.0739 3.15909 50.5057 5.02273 50.5057 7.70455C50.5057 10.3864 52.0511 12.1818 54.5739 12.1818ZM51.8523 6.93182C51.9432 5.57386 52.9034 4.36364 54.4375 4.36364C55.892 4.36364 56.8239 5.45455 56.8239 6.93182H51.8523ZM60.2273 12H61.5682V6.47727C61.5682 5.29545 62.5 4.43182 63.7727 4.43182C64.1307 4.43182 64.5 4.5 64.5909 4.52273V3.15909C64.4375 3.14773 64.0852 3.13636 63.8864 3.13636C62.8409 3.13636 61.9318 3.72727 61.6136 4.59091H61.5227V3.27273H60.2273V12ZM68.7486 12.2045C70.2713 12.2045 71.0668 11.3864 71.3395 10.8182H71.4077V12H72.7486V6.25C72.7486 3.47727 70.6349 3.15909 69.5213 3.15909C68.2031 3.15909 66.7031 3.61364 66.0213 5.20455L67.294 5.65909C67.5895 5.02273 68.2884 4.34091 69.5668 4.34091C70.7997 4.34091 71.4077 4.99432 71.4077 6.11364V6.15909C71.4077 6.80682 70.7486 6.75 69.1577 6.95455C67.5384 7.16477 65.7713 7.52273 65.7713 9.52273C65.7713 11.2273 67.0895 12.2045 68.7486 12.2045ZM68.9531 11C67.8849 11 67.1122 10.5227 67.1122 9.59091C67.1122 8.56818 68.044 8.25 69.0895 8.11364C69.6577 8.04545 71.1804 7.88636 71.4077 7.61364V8.84091C71.4077 9.93182 70.544 11 68.9531 11ZM78.9915 3.27273H77.1278V1.18182H75.7869V3.27273H74.4688V4.40909H75.7869V9.86364C75.7869 11.3864 77.0142 12.1136 78.1506 12.1136C78.6506 12.1136 78.9688 12.0227 79.1506 11.9545L78.8778 10.75C78.7642 10.7727 78.5824 10.8182 78.2869 10.8182C77.696 10.8182 77.1278 10.6364 77.1278 9.5V4.40909H78.9915V3.27273ZM84.4602 12.1818C86.8239 12.1818 88.4148 10.3864 88.4148 7.68182C88.4148 4.95455 86.8239 3.15909 84.4602 3.15909C82.0966 3.15909 80.5057 4.95455 80.5057 7.68182C80.5057 10.3864 82.0966 12.1818 84.4602 12.1818ZM84.4602 10.9773C82.6648 10.9773 81.8466 9.43182 81.8466 7.68182C81.8466 5.93182 82.6648 4.36364 84.4602 4.36364C86.2557 4.36364 87.0739 5.93182 87.0739 7.68182C87.0739 9.43182 86.2557 10.9773 84.4602 10.9773ZM90.4616 12H91.8026V6.47727C91.8026 5.29545 92.7344 4.43182 94.0071 4.43182C94.3651 4.43182 94.7344 4.5 94.8253 4.52273V3.15909C94.6719 3.14773 94.3196 3.13636 94.1207 3.13636C93.0753 3.13636 92.1662 3.72727 91.848 4.59091H91.7571V3.27273H90.4616V12ZM102.597 5.22727C102.176 3.98864 101.233 3.15909 99.5057 3.15909C97.6648 3.15909 96.3011 4.20455 96.3011 5.68182C96.3011 6.88636 97.017 7.69318 98.6193 8.06818L100.074 8.40909C100.955 8.61364 101.369 9.03409 101.369 9.63636C101.369 10.3864 100.574 11 99.3239 11C98.2273 11 97.5398 10.5284 97.3011 9.59091L96.0284 9.90909C96.3409 11.392 97.5625 12.1818 99.3466 12.1818C101.375 12.1818 102.756 11.0739 102.756 9.56818C102.756 8.35227 101.994 7.58523 100.438 7.20455L99.142 6.88636C98.108 6.63068 97.642 6.28409 97.642 5.61364C97.642 4.86364 98.4375 4.31818 99.5057 4.31818C100.676 4.31818 101.159 4.96591 101.392 5.56818L102.597 5.22727ZM0.673296 54H2.34659V48.6023H5.36932C5.49077 48.6023 5.60547 48.6023 5.72017 48.5955L8.63494 54H10.5781L7.45419 48.2919C9.2152 47.6914 10.0384 46.2543 10.0384 44.419C10.0384 41.9766 8.58097 40.1818 5.34233 40.1818H0.673296V54ZM2.34659 47.0909V41.6662H5.28835C7.52841 41.6662 8.39205 42.7592 8.39205 44.419C8.39205 46.0788 7.52841 47.0909 5.31534 47.0909H2.34659ZM16.8445 54.2159C18.9497 54.2159 20.488 53.1634 20.9738 51.598L19.4355 51.1662C19.0306 52.2457 18.0928 52.7855 16.8445 52.7855C14.9756 52.7855 13.6869 51.5778 13.6127 49.358H21.1357V48.6832C21.1357 44.8239 18.8417 43.5014 16.6826 43.5014C13.8758 43.5014 12.0136 45.7145 12.0136 48.8991C12.0136 52.0838 13.8488 54.2159 16.8445 54.2159ZM13.6127 47.9815C13.7206 46.369 14.8609 44.9318 16.6826 44.9318C18.4099 44.9318 19.5164 46.2273 19.5164 47.9815H13.6127ZM27.7412 58.1023C30.2242 58.1023 32.2213 56.9688 32.2213 54.2969V43.6364H30.683V45.2827H30.521C30.1702 44.7429 29.5225 43.5014 27.4983 43.5014C24.8804 43.5014 23.0722 45.5795 23.0722 48.7642C23.0722 52.0028 24.9614 53.8381 27.4713 53.8381C29.4955 53.8381 30.1432 52.6506 30.4941 52.0838H30.629V54.1889C30.629 55.9162 29.4145 56.6989 27.7412 56.6989C25.8588 56.6989 25.1975 55.707 24.7725 55.1335L23.504 56.0241C24.1517 57.1104 25.4269 58.1023 27.7412 58.1023ZM27.6872 52.4077C25.6901 52.4077 24.6645 50.8963 24.6645 48.7372C24.6645 46.6321 25.6631 44.9318 27.6872 44.9318C29.6304 44.9318 30.656 46.4972 30.656 48.7372C30.656 51.0312 29.6034 52.4077 27.6872 52.4077ZM35.1361 54H36.7284V43.6364H35.1361V54ZM35.9458 41.9091C36.5665 41.9091 37.0793 41.4233 37.0793 40.8295C37.0793 40.2358 36.5665 39.75 35.9458 39.75C35.325 39.75 34.8122 40.2358 34.8122 40.8295C34.8122 41.4233 35.325 41.9091 35.9458 41.9091ZM46.9858 45.9574C46.4865 44.4865 45.3665 43.5014 43.3153 43.5014C41.1293 43.5014 39.5099 44.7429 39.5099 46.4972C39.5099 47.9276 40.3601 48.8857 42.2628 49.331L43.9901 49.7358C45.0359 49.9787 45.5284 50.478 45.5284 51.1932C45.5284 52.0838 44.5838 52.8125 43.0994 52.8125C41.7972 52.8125 40.9808 52.2525 40.6974 51.1392L39.1861 51.517C39.5572 53.2781 41.0078 54.2159 43.1264 54.2159C45.5352 54.2159 47.1747 52.9002 47.1747 51.1122C47.1747 49.6683 46.2706 48.7575 44.4219 48.3054L42.8835 47.9276C41.6555 47.6239 41.1023 47.2124 41.1023 46.4162C41.1023 45.5256 42.0469 44.8778 43.3153 44.8778C44.7053 44.8778 45.2788 45.647 45.5554 46.3622L46.9858 45.9574ZM54.0787 43.6364H51.8657V41.1534H50.2733V43.6364H48.708V44.9858H50.2733V51.4631C50.2733 53.2713 51.7307 54.1349 53.0802 54.1349C53.6739 54.1349 54.0518 54.027 54.2677 53.946L53.9438 52.5156C53.8089 52.5426 53.593 52.5966 53.2421 52.5966C52.5404 52.5966 51.8657 52.3807 51.8657 51.0312V44.9858H54.0787V43.6364ZM56.474 54H58.0663V47.4418C58.0663 46.0384 59.1729 45.0128 60.6842 45.0128C61.1093 45.0128 61.5479 45.0938 61.6558 45.1207V43.5014C61.4736 43.4879 61.0553 43.4744 60.8192 43.4744C59.5777 43.4744 58.4981 44.1761 58.1203 45.2017H58.0123V43.6364H56.474V54ZM66.593 54.2429C68.4013 54.2429 69.3459 53.2713 69.6697 52.5966H69.7507V54H71.343V47.1719C71.343 43.8793 68.8331 43.5014 67.5107 43.5014C65.9453 43.5014 64.1641 44.0412 63.3544 45.9304L64.8658 46.4702C65.2166 45.7145 66.0465 44.9048 67.5646 44.9048C69.0288 44.9048 69.7507 45.6808 69.7507 47.0099V47.0639C69.7507 47.8331 68.968 47.7656 67.0788 48.0085C65.1559 48.2582 63.0575 48.6832 63.0575 51.0582C63.0575 53.0824 64.6229 54.2429 66.593 54.2429ZM66.8359 52.8125C65.5675 52.8125 64.6499 52.2457 64.6499 51.1392C64.6499 49.9247 65.7564 49.5469 66.9979 49.3849C67.6726 49.304 69.4808 49.1151 69.7507 48.7912V50.2486C69.7507 51.544 68.7251 52.8125 66.8359 52.8125ZM78.7565 43.6364H76.5434V41.1534H74.9511V43.6364H73.3857V44.9858H74.9511V51.4631C74.9511 53.2713 76.4085 54.1349 77.7579 54.1349C78.3517 54.1349 78.7295 54.027 78.9454 53.946L78.6215 52.5156C78.4866 52.5426 78.2707 52.5966 77.9198 52.5966C77.2181 52.5966 76.5434 52.3807 76.5434 51.0312V44.9858H78.7565V43.6364ZM81.1517 54H82.7441V43.6364H81.1517V54ZM81.9614 41.9091C82.5821 41.9091 83.0949 41.4233 83.0949 40.8295C83.0949 40.2358 82.5821 39.75 81.9614 39.75C81.3406 39.75 80.8279 40.2358 80.8279 40.8295C80.8279 41.4233 81.3406 41.9091 81.9614 41.9091ZM89.8707 54.2159C92.6776 54.2159 94.5668 52.0838 94.5668 48.8722C94.5668 45.6335 92.6776 43.5014 89.8707 43.5014C87.0639 43.5014 85.1747 45.6335 85.1747 48.8722C85.1747 52.0838 87.0639 54.2159 89.8707 54.2159ZM89.8707 52.7855C87.7386 52.7855 86.767 50.9503 86.767 48.8722C86.767 46.794 87.7386 44.9318 89.8707 44.9318C92.0028 44.9318 92.9744 46.794 92.9744 48.8722C92.9744 50.9503 92.0028 52.7855 89.8707 52.7855ZM98.5898 47.7656C98.5898 45.9574 99.7098 44.9318 101.235 44.9318C102.712 44.9318 103.61 45.8967 103.61 47.5227V54H105.202V47.4148C105.202 44.7699 103.792 43.5014 101.693 43.5014C100.128 43.5014 99.1565 44.2031 98.6707 45.2557H98.5358V43.6364H96.9974V54H98.5898V47.7656ZM123.117 44.5H124.845C124.332 41.8281 122.092 39.9929 119.177 39.9929C115.635 39.9929 113.132 42.7188 113.132 47.0909C113.132 51.4631 115.615 54.1889 119.285 54.1889C122.578 54.1889 124.926 51.9961 124.926 48.5753V47.0909H119.663V48.5753H123.306C123.259 51.0582 121.626 52.6236 119.285 52.6236C116.721 52.6236 114.751 50.6804 114.751 47.0909C114.751 43.5014 116.721 41.5582 119.177 41.5582C121.174 41.5582 122.53 42.685 123.117 44.5ZM134.107 49.7628C134.107 51.706 132.622 52.5966 131.435 52.5966C130.112 52.5966 129.168 51.625 129.168 50.1136V43.6364H127.576V50.2216C127.576 52.8665 128.979 54.1349 130.922 54.1349C132.487 54.1349 133.513 53.2983 133.999 52.2457H134.107V54H135.699V43.6364H134.107V49.7628ZM138.616 54H140.208V43.6364H138.616V54ZM139.425 41.9091C140.046 41.9091 140.559 41.4233 140.559 40.8295C140.559 40.2358 140.046 39.75 139.425 39.75C138.805 39.75 138.292 40.2358 138.292 40.8295C138.292 41.4233 138.805 41.9091 139.425 41.9091ZM147.038 54.2159C149.035 54.2159 149.71 52.9744 150.06 52.4077H150.249V54H151.788V40.1818H150.195V45.2827H150.06C149.71 44.7429 149.089 43.5014 147.065 43.5014C144.447 43.5014 142.639 45.5795 142.639 48.8452C142.639 52.1378 144.447 54.2159 147.038 54.2159ZM147.254 52.7855C145.256 52.7855 144.231 51.0312 144.231 48.8182C144.231 46.6321 145.229 44.9318 147.254 44.9318C149.197 44.9318 150.222 46.4972 150.222 48.8182C150.222 51.1662 149.17 52.7855 147.254 52.7855ZM159.27 54.2159C161.375 54.2159 162.914 53.1634 163.4 51.598L161.861 51.1662C161.456 52.2457 160.519 52.7855 159.27 52.7855C157.401 52.7855 156.113 51.5778 156.038 49.358H163.562V48.6832C163.562 44.8239 161.267 43.5014 159.108 43.5014C156.302 43.5014 154.439 45.7145 154.439 48.8991C154.439 52.0838 156.275 54.2159 159.27 54.2159ZM156.038 47.9815C156.146 46.369 157.287 44.9318 159.108 44.9318C160.836 44.9318 161.942 46.2273 161.942 47.9815H156.038ZM0.232955 71H1.46591V66.446H6.89489V71H8.12784V60.8182H6.89489V65.3523H1.46591V60.8182H0.232955V71ZM13.5394 71.1591C15.6076 71.1591 16.9996 69.5881 16.9996 67.2216C16.9996 64.8352 15.6076 63.2642 13.5394 63.2642C11.4712 63.2642 10.0792 64.8352 10.0792 67.2216C10.0792 69.5881 11.4712 71.1591 13.5394 71.1591ZM13.5394 70.1051C11.9684 70.1051 11.2525 68.7528 11.2525 67.2216C11.2525 65.6903 11.9684 64.3182 13.5394 64.3182C15.1104 64.3182 15.8263 65.6903 15.8263 67.2216C15.8263 68.7528 15.1104 70.1051 13.5394 70.1051ZM20.261 71H21.4144L23.0849 65.1335H23.2042L24.8746 71H26.0281L28.3548 63.3636H27.1218L25.4712 69.1903H25.3917L23.7809 63.3636H22.5281L20.8974 69.2102H20.8178L19.1673 63.3636H17.9343L20.261 71ZM37.1644 63.3636H35.5337V61.5341H34.3604V63.3636H33.207V64.358H34.3604V69.1307C34.3604 70.4631 35.4343 71.0994 36.4286 71.0994C36.8661 71.0994 37.1445 71.0199 37.3036 70.9602L37.065 69.9062C36.9656 69.9261 36.8065 69.9659 36.5479 69.9659C36.0309 69.9659 35.5337 69.8068 35.5337 68.8125V64.358H37.1644V63.3636ZM41.9496 71.1591C44.0178 71.1591 45.4098 69.5881 45.4098 67.2216C45.4098 64.8352 44.0178 63.2642 41.9496 63.2642C39.8814 63.2642 38.4893 64.8352 38.4893 67.2216C38.4893 69.5881 39.8814 71.1591 41.9496 71.1591ZM41.9496 70.1051C40.3786 70.1051 39.6626 68.7528 39.6626 67.2216C39.6626 65.6903 40.3786 64.3182 41.9496 64.3182C43.5206 64.3182 44.2365 65.6903 44.2365 67.2216C44.2365 68.7528 43.5206 70.1051 41.9496 70.1051ZM53.3855 71.179C54.7179 71.179 55.4139 70.4631 55.6525 69.9659H55.7122V71H56.8855V65.9688C56.8855 63.5426 55.036 63.2642 54.0616 63.2642C52.9082 63.2642 51.5957 63.6619 50.9991 65.054L52.1127 65.4517C52.3713 64.8949 52.9828 64.2983 54.1014 64.2983C55.1802 64.2983 55.7122 64.87 55.7122 65.8494V65.8892C55.7122 66.456 55.1355 66.4062 53.7434 66.5852C52.3265 66.7692 50.7804 67.0824 50.7804 68.8324C50.7804 70.3239 51.9338 71.179 53.3855 71.179ZM53.5645 70.125C52.6298 70.125 51.9537 69.7074 51.9537 68.892C51.9537 67.9972 52.769 67.7188 53.6838 67.5994C54.1809 67.5398 55.5133 67.4006 55.7122 67.1619V68.2358C55.7122 69.1903 54.9565 70.125 53.5645 70.125ZM64.4361 65.0739C64.0682 63.9901 63.2429 63.2642 61.7315 63.2642C60.1207 63.2642 58.9276 64.179 58.9276 65.4716C58.9276 66.5256 59.554 67.2315 60.956 67.5597L62.2287 67.858C62.9993 68.0369 63.3622 68.4048 63.3622 68.9318C63.3622 69.5881 62.6662 70.125 61.5724 70.125C60.6129 70.125 60.0114 69.7124 59.8026 68.892L58.6889 69.1705C58.9624 70.468 60.0312 71.1591 61.5923 71.1591C63.3672 71.1591 64.5753 70.1896 64.5753 68.8722C64.5753 67.8082 63.9091 67.1371 62.5469 66.804L61.4134 66.5256C60.5085 66.3018 60.1009 65.9986 60.1009 65.4119C60.1009 64.7557 60.7969 64.2784 61.7315 64.2784C62.7557 64.2784 63.1783 64.8452 63.3821 65.3722L64.4361 65.0739ZM71.7505 65.0739C71.3826 63.9901 70.5574 63.2642 69.046 63.2642C67.4352 63.2642 66.242 64.179 66.242 65.4716C66.242 66.5256 66.8684 67.2315 68.2704 67.5597L69.5431 67.858C70.3137 68.0369 70.6767 68.4048 70.6767 68.9318C70.6767 69.5881 69.9806 70.125 68.8869 70.125C67.9274 70.125 67.3258 69.7124 67.117 68.892L66.0034 69.1705C66.2768 70.468 67.3457 71.1591 68.9068 71.1591C70.6816 71.1591 71.8897 70.1896 71.8897 68.8722C71.8897 67.8082 71.2235 67.1371 69.8613 66.804L68.7278 66.5256C67.823 66.3018 67.4153 65.9986 67.4153 65.4119C67.4153 64.7557 68.1113 64.2784 69.046 64.2784C70.0701 64.2784 70.4927 64.8452 70.6966 65.3722L71.7505 65.0739ZM76.7582 71.1591C78.8263 71.1591 80.2184 69.5881 80.2184 67.2216C80.2184 64.8352 78.8263 63.2642 76.7582 63.2642C74.69 63.2642 73.2979 64.8352 73.2979 67.2216C73.2979 69.5881 74.69 71.1591 76.7582 71.1591ZM76.7582 70.1051C75.1871 70.1051 74.4712 68.7528 74.4712 67.2216C74.4712 65.6903 75.1871 64.3182 76.7582 64.3182C78.3292 64.3182 79.0451 65.6903 79.0451 67.2216C79.0451 68.7528 78.3292 70.1051 76.7582 70.1051ZM87.4185 65.0739C87.0506 63.9901 86.2253 63.2642 84.714 63.2642C83.1032 63.2642 81.91 64.179 81.91 65.4716C81.91 66.5256 82.5364 67.2315 83.9384 67.5597L85.2111 67.858C85.9817 68.0369 86.3446 68.4048 86.3446 68.9318C86.3446 69.5881 85.6486 70.125 84.5549 70.125C83.5953 70.125 82.9938 69.7124 82.785 68.892L81.6713 69.1705C81.9448 70.468 83.0137 71.1591 84.5748 71.1591C86.3496 71.1591 87.5577 70.1896 87.5577 68.8722C87.5577 67.8082 86.8915 67.1371 85.5293 66.804L84.3958 66.5256C83.4909 66.3018 83.0833 65.9986 83.0833 65.4119C83.0833 64.7557 83.7793 64.2784 84.714 64.2784C85.7381 64.2784 86.1607 64.8452 86.3645 65.3722L87.4185 65.0739ZM89.3239 71H90.4972V63.3636H89.3239V71ZM89.9205 62.0909C90.3778 62.0909 90.7557 61.733 90.7557 61.2955C90.7557 60.858 90.3778 60.5 89.9205 60.5C89.4631 60.5 89.0852 60.858 89.0852 61.2955C89.0852 61.733 89.4631 62.0909 89.9205 62.0909ZM94.8933 71.179C96.2257 71.179 96.9217 70.4631 97.1603 69.9659H97.22V71H98.3933V65.9688C98.3933 63.5426 96.5439 63.2642 95.5694 63.2642C94.416 63.2642 93.1035 63.6619 92.5069 65.054L93.6206 65.4517C93.8791 64.8949 94.4906 64.2983 95.6092 64.2983C96.688 64.2983 97.22 64.87 97.22 65.8494V65.8892C97.22 66.456 96.6433 66.4062 95.2512 66.5852C93.8343 66.7692 92.2882 67.0824 92.2882 68.8324C92.2882 70.3239 93.4416 71.179 94.8933 71.179ZM95.0723 70.125C94.1376 70.125 93.4615 69.7074 93.4615 68.892C93.4615 67.9972 94.2768 67.7188 95.1916 67.5994C95.6887 67.5398 97.0211 67.4006 97.22 67.1619V68.2358C97.22 69.1903 96.4643 70.125 95.0723 70.125ZM103.856 63.3636H102.225V61.5341H101.052V63.3636H99.8984V64.358H101.052V69.1307C101.052 70.4631 102.126 71.0994 103.12 71.0994C103.558 71.0994 103.836 71.0199 103.995 70.9602L103.756 69.9062C103.657 69.9261 103.498 69.9659 103.239 69.9659C102.722 69.9659 102.225 69.8068 102.225 68.8125V64.358H103.856V63.3636ZM108.74 71.1591C110.292 71.1591 111.425 70.3835 111.783 69.2301L110.65 68.9119C110.351 69.7074 109.66 70.1051 108.74 70.1051C107.363 70.1051 106.414 69.2152 106.359 67.5795H111.902V67.0824C111.902 64.2386 110.212 63.2642 108.621 63.2642C106.553 63.2642 105.181 64.8949 105.181 67.2415C105.181 69.5881 106.533 71.1591 108.74 71.1591ZM106.359 66.5653C106.439 65.3771 107.279 64.3182 108.621 64.3182C109.894 64.3182 110.709 65.2727 110.709 66.5653H106.359ZM119.355 71H120.508L122.179 65.1335H122.298L123.968 71H125.122L127.449 63.3636H126.216L124.565 69.1903H124.485L122.875 63.3636H121.622L119.991 69.2102H119.912L118.261 63.3636H117.028L119.355 71ZM129 71H130.173V63.3636H129V71ZM129.596 62.0909C130.054 62.0909 130.431 61.733 130.431 61.2955C130.431 60.858 130.054 60.5 129.596 60.5C129.139 60.5 128.761 60.858 128.761 61.2955C128.761 61.733 129.139 62.0909 129.596 62.0909ZM135.643 63.3636H134.012V61.5341H132.839V63.3636H131.686V64.358H132.839V69.1307C132.839 70.4631 133.913 71.0994 134.907 71.0994C135.345 71.0994 135.623 71.0199 135.782 70.9602L135.544 69.9062C135.444 69.9261 135.285 69.9659 135.026 69.9659C134.509 69.9659 134.012 69.8068 134.012 68.8125V64.358H135.643V63.3636ZM138.745 66.4062C138.745 65.0739 139.595 64.3182 140.754 64.3182C141.857 64.3182 142.524 65.0142 142.524 66.2273V71H143.697V66.1477C143.697 64.1839 142.653 63.2642 141.092 63.2642C139.889 63.2642 139.203 63.7663 138.845 64.5568H138.745V60.8182H137.572V71H138.745V66.4062ZM149.94 71H151.173V67.6989L152.446 66.267L155.985 71H157.477L153.201 65.4119L157.477 60.8182H155.866L151.292 65.8693H151.173V60.8182H149.94V71ZM160.087 66.4062C160.087 65.0739 160.912 64.3182 162.036 64.3182C163.125 64.3182 163.786 65.0291 163.786 66.2273V71H164.959V66.1477C164.959 64.1989 163.92 63.2642 162.374 63.2642C161.221 63.2642 160.505 63.7812 160.147 64.5568H160.047V63.3636H158.914V71H160.087V66.4062ZM170.205 71.1591C172.274 71.1591 173.666 69.5881 173.666 67.2216C173.666 64.8352 172.274 63.2642 170.205 63.2642C168.137 63.2642 166.745 64.8352 166.745 67.2216C166.745 69.5881 168.137 71.1591 170.205 71.1591ZM170.205 70.1051C168.634 70.1051 167.919 68.7528 167.919 67.2216C167.919 65.6903 168.634 64.3182 170.205 64.3182C171.776 64.3182 172.492 65.6903 172.492 67.2216C172.492 68.7528 171.776 70.1051 170.205 70.1051ZM176.927 71H178.08L179.751 65.1335H179.87L181.541 71H182.694L185.021 63.3636H183.788L182.137 69.1903H182.058L180.447 63.3636H179.194L177.563 69.2102H177.484L175.833 63.3636H174.6L176.927 71ZM190.669 71H194.347C196.754 71 197.748 69.8267 197.748 68.2955C197.748 66.6847 196.634 65.8097 195.7 65.75V65.6506C196.575 65.4119 197.35 64.8352 197.35 63.5227C197.35 62.0312 196.356 60.8182 194.228 60.8182H190.669V71ZM191.901 69.9062V66.3665H194.407C195.74 66.3665 196.575 67.2614 196.575 68.2955C196.575 69.1903 195.958 69.9062 194.347 69.9062H191.901ZM191.901 65.2926V61.9119H194.228C195.58 61.9119 196.177 62.6278 196.177 63.5227C196.177 64.5966 195.302 65.2926 194.188 65.2926H191.901ZM201.862 71.179C203.194 71.179 203.89 70.4631 204.129 69.9659H204.189V71H205.362V65.9688C205.362 63.5426 203.513 63.2642 202.538 63.2642C201.385 63.2642 200.072 63.6619 199.476 65.054L200.589 65.4517C200.848 64.8949 201.459 64.2983 202.578 64.2983C203.657 64.2983 204.189 64.87 204.189 65.8494V65.8892C204.189 66.456 203.612 66.4062 202.22 66.5852C200.803 66.7692 199.257 67.0824 199.257 68.8324C199.257 70.3239 200.41 71.179 201.862 71.179ZM202.041 70.125C201.106 70.125 200.43 69.7074 200.43 68.892C200.43 67.9972 201.246 67.7188 202.16 67.5994C202.657 67.5398 203.99 67.4006 204.189 67.1619V68.2358C204.189 69.1903 203.433 70.125 202.041 70.125ZM212.913 65.0739C212.545 63.9901 211.719 63.2642 210.208 63.2642C208.597 63.2642 207.404 64.179 207.404 65.4716C207.404 66.5256 208.031 67.2315 209.433 67.5597L210.705 67.858C211.476 68.0369 211.839 68.4048 211.839 68.9318C211.839 69.5881 211.143 70.125 210.049 70.125C209.089 70.125 208.488 69.7124 208.279 68.892L207.165 69.1705C207.439 70.468 208.508 71.1591 210.069 71.1591C211.844 71.1591 213.052 70.1896 213.052 68.8722C213.052 67.8082 212.386 67.1371 211.023 66.804L209.89 66.5256C208.985 66.3018 208.577 65.9986 208.577 65.4119C208.577 64.7557 209.273 64.2784 210.208 64.2784C211.232 64.2784 211.655 64.8452 211.859 65.3722L212.913 65.0739ZM218.139 63.3636H216.508V61.5341H215.335V63.3636H214.182V64.358H215.335V69.1307C215.335 70.4631 216.409 71.0994 217.403 71.0994C217.841 71.0994 218.119 71.0199 218.278 70.9602L218.04 69.9062C217.94 69.9261 217.781 69.9659 217.523 69.9659C217.006 69.9659 216.508 69.8068 216.508 68.8125V64.358H218.139V63.3636ZM222.151 71.179C223.483 71.179 224.18 70.4631 224.418 69.9659H224.478V71H225.651V65.9688C225.651 63.5426 223.802 63.2642 222.827 63.2642C221.674 63.2642 220.361 63.6619 219.765 65.054L220.878 65.4517C221.137 64.8949 221.748 64.2983 222.867 64.2983C223.946 64.2983 224.478 64.87 224.478 65.8494V65.8892C224.478 66.456 223.901 66.4062 222.509 66.5852C221.092 66.7692 219.546 67.0824 219.546 68.8324C219.546 70.3239 220.699 71.179 222.151 71.179ZM222.33 70.125C221.395 70.125 220.719 69.7074 220.719 68.892C220.719 67.9972 221.535 67.7188 222.449 67.5994C222.947 67.5398 224.279 67.4006 224.478 67.1619V68.2358C224.478 69.1903 223.722 70.125 222.33 70.125ZM227.793 71H228.966V66.1676C228.966 65.1335 229.781 64.3778 230.895 64.3778C231.208 64.3778 231.531 64.4375 231.611 64.4574V63.2642C231.477 63.2543 231.168 63.2443 230.994 63.2443C230.08 63.2443 229.284 63.7614 229.006 64.517H228.926V63.3636H227.793V71ZM0.673296 113H5.66619C8.93182 113 10.2812 111.408 10.2812 109.33C10.2812 107.143 8.76989 105.956 7.50142 105.875V105.74C8.68892 105.416 9.74148 104.634 9.74148 102.852C9.74148 100.828 8.39205 99.1818 5.50426 99.1818H0.673296V113ZM2.34659 111.516V106.712H5.74716C7.5554 106.712 8.68892 107.926 8.68892 109.33C8.68892 110.544 7.85227 111.516 5.66619 111.516H2.34659ZM2.34659 105.254V100.666H5.50426C7.33949 100.666 8.14915 101.638 8.14915 102.852C8.14915 104.31 6.96165 105.254 5.45028 105.254H2.34659ZM17.025 113.216C19.8319 113.216 21.7211 111.084 21.7211 107.872C21.7211 104.634 19.8319 102.501 17.025 102.501C14.2182 102.501 12.329 104.634 12.329 107.872C12.329 111.084 14.2182 113.216 17.025 113.216ZM17.025 111.786C14.8929 111.786 13.9213 109.95 13.9213 107.872C13.9213 105.794 14.8929 103.932 17.025 103.932C19.1571 103.932 20.1287 105.794 20.1287 107.872C20.1287 109.95 19.1571 111.786 17.025 111.786ZM28.3619 113.216C31.1688 113.216 33.058 111.084 33.058 107.872C33.058 104.634 31.1688 102.501 28.3619 102.501C25.5551 102.501 23.6659 104.634 23.6659 107.872C23.6659 111.084 25.5551 113.216 28.3619 113.216ZM28.3619 111.786C26.2298 111.786 25.2583 109.95 25.2583 107.872C25.2583 105.794 26.2298 103.932 28.3619 103.932C30.4941 103.932 31.4656 105.794 31.4656 107.872C31.4656 109.95 30.4941 111.786 28.3619 111.786ZM35.4886 113H37.081V109.12L38.1942 108.088L42.0739 113H44.098L39.3952 107.062L43.7741 102.636H41.804L37.2699 107.251H37.081V99.1818H35.4886V113ZM45.8236 113H47.4159V102.636H45.8236V113ZM46.6333 100.909C47.254 100.909 47.7668 100.423 47.7668 99.8295C47.7668 99.2358 47.254 98.75 46.6333 98.75C46.0125 98.75 45.4997 99.2358 45.4997 99.8295C45.4997 100.423 46.0125 100.909 46.6333 100.909ZM51.9247 106.766C51.9247 104.957 53.0447 103.932 54.5696 103.932C56.0472 103.932 56.9446 104.897 56.9446 106.523V113H58.5369V106.415C58.5369 103.77 57.1268 102.501 55.0284 102.501C53.4631 102.501 52.4915 103.203 52.0057 104.256H51.8707V102.636H50.3324V113H51.9247V106.766ZM65.6299 117.102C68.1128 117.102 70.11 115.969 70.11 113.297V102.636H68.5716V104.283H68.4097C68.0589 103.743 67.4111 102.501 65.387 102.501C62.7691 102.501 60.9608 104.58 60.9608 107.764C60.9608 111.003 62.8501 112.838 65.36 112.838C67.3841 112.838 68.0319 111.651 68.3827 111.084H68.5177V113.189C68.5177 114.916 67.3032 115.699 65.6299 115.699C63.7474 115.699 63.0862 114.707 62.6611 114.134L61.3927 115.024C62.0404 116.11 63.3156 117.102 65.6299 117.102ZM65.5759 111.408C63.5787 111.408 62.5532 109.896 62.5532 107.737C62.5532 105.632 63.5518 103.932 65.5759 103.932C67.5191 103.932 68.5447 105.497 68.5447 107.737C68.5447 110.031 67.4921 111.408 65.5759 111.408ZM82.8486 113C87.0589 113 89.4339 110.382 89.4339 106.064C89.4339 101.773 87.0589 99.1818 83.0376 99.1818H78.5844V113H82.8486ZM80.2577 111.516V100.666H82.9296C86.1682 100.666 87.8145 102.717 87.8145 106.064C87.8145 109.438 86.1682 111.516 82.7407 111.516H80.2577ZM96.3699 113.216C98.4751 113.216 100.013 112.163 100.499 110.598L98.9608 110.166C98.556 111.246 97.6182 111.786 96.3699 111.786C94.501 111.786 93.2123 110.578 93.1381 108.358H100.661V107.683C100.661 103.824 98.3671 102.501 96.208 102.501C93.4012 102.501 91.539 104.714 91.539 107.899C91.539 111.084 93.3742 113.216 96.3699 113.216ZM93.1381 106.982C93.246 105.369 94.3863 103.932 96.208 103.932C97.9353 103.932 99.0418 105.227 99.0418 106.982H93.1381ZM107.59 102.636H105.377V100.153H103.785V102.636H102.22V103.986H103.785V110.463C103.785 112.271 105.242 113.135 106.592 113.135C107.186 113.135 107.563 113.027 107.779 112.946L107.456 111.516C107.321 111.543 107.105 111.597 106.754 111.597C106.052 111.597 105.377 111.381 105.377 110.031V103.986H107.59V102.636ZM113.035 113.243C114.844 113.243 115.788 112.271 116.112 111.597H116.193V113H117.785V106.172C117.785 102.879 115.275 102.501 113.953 102.501C112.388 102.501 110.606 103.041 109.797 104.93L111.308 105.47C111.659 104.714 112.489 103.905 114.007 103.905C115.471 103.905 116.193 104.681 116.193 106.01V106.064C116.193 106.833 115.41 106.766 113.521 107.009C111.598 107.258 109.5 107.683 109.5 110.058C109.5 112.082 111.065 113.243 113.035 113.243ZM113.278 111.812C112.01 111.812 111.092 111.246 111.092 110.139C111.092 108.925 112.199 108.547 113.44 108.385C114.115 108.304 115.923 108.115 116.193 107.791V109.249C116.193 110.544 115.168 111.812 113.278 111.812ZM120.692 113H122.284V102.636H120.692V113ZM121.501 100.909C122.122 100.909 122.635 100.423 122.635 99.8295C122.635 99.2358 122.122 98.75 121.501 98.75C120.881 98.75 120.368 99.2358 120.368 99.8295C120.368 100.423 120.881 100.909 121.501 100.909ZM126.793 99.1818H125.201V113H126.793V99.1818ZM137.05 104.957C136.551 103.487 135.431 102.501 133.38 102.501C131.194 102.501 129.574 103.743 129.574 105.497C129.574 106.928 130.425 107.886 132.327 108.331L134.055 108.736C135.1 108.979 135.593 109.478 135.593 110.193C135.593 111.084 134.648 111.812 133.164 111.812C131.862 111.812 131.045 111.252 130.762 110.139L129.251 110.517C129.622 112.278 131.072 113.216 133.191 113.216C135.6 113.216 137.239 111.9 137.239 110.112C137.239 108.668 136.335 107.757 134.486 107.305L132.948 106.928C131.72 106.624 131.167 106.212 131.167 105.416C131.167 104.526 132.111 103.878 133.38 103.878C134.77 103.878 135.343 104.647 135.62 105.362L137.05 104.957ZM0.232955 119.818V130H1.38636V122.264H1.4858L4.66761 130H5.78125L8.96307 122.264H9.0625V130H10.2159V119.818H8.74432L5.28409 128.27H5.16477L1.70455 119.818H0.232955ZM14.7761 130.179C16.1085 130.179 16.8045 129.463 17.0431 128.966H17.1028V130H18.2761V124.969C18.2761 122.543 16.4267 122.264 15.4522 122.264C14.2988 122.264 12.9863 122.662 12.3897 124.054L13.5034 124.452C13.7619 123.895 14.3734 123.298 15.492 123.298C16.5708 123.298 17.1028 123.87 17.1028 124.849V124.889C17.1028 125.456 16.5261 125.406 15.1341 125.585C13.7172 125.769 12.171 126.082 12.171 127.832C12.171 129.324 13.3244 130.179 14.7761 130.179ZM14.9551 129.125C14.0204 129.125 13.3443 128.707 13.3443 127.892C13.3443 126.997 14.1596 126.719 15.0744 126.599C15.5716 126.54 16.9039 126.401 17.1028 126.162V127.236C17.1028 128.19 16.3471 129.125 14.9551 129.125ZM20.4176 132.864H21.5909V128.827H21.6903C21.9489 129.244 22.446 130.159 23.9176 130.159C25.8267 130.159 27.1591 128.628 27.1591 126.202C27.1591 123.795 25.8267 122.264 23.8977 122.264C22.4062 122.264 21.9489 123.179 21.6903 123.577H21.5511V122.364H20.4176V132.864ZM21.571 126.182C21.571 124.472 22.3267 123.318 23.7585 123.318C25.25 123.318 25.9858 124.571 25.9858 126.182C25.9858 127.812 25.2301 129.105 23.7585 129.105C22.3466 129.105 21.571 127.912 21.571 126.182ZM30.6989 128.608H29.4261L29.3665 129.165C29.2223 130.512 28.9389 131.854 28.8097 132.486H29.7045C29.9432 131.81 30.4503 130.278 30.6193 129.145L30.6989 128.608ZM43.9295 123H45.2022C44.8244 121.031 43.1738 119.679 41.0261 119.679C38.416 119.679 36.5716 121.688 36.5716 124.909C36.5716 128.131 38.4011 130.139 41.1056 130.139C43.5318 130.139 45.2619 128.523 45.2619 126.003V124.909H41.3841V126.003H44.0687C44.0339 127.832 42.8308 128.986 41.1056 128.986C39.2164 128.986 37.7647 127.554 37.7647 124.909C37.7647 122.264 39.2164 120.832 41.0261 120.832C42.4977 120.832 43.497 121.663 43.9295 123ZM52.027 126.878C52.027 128.31 50.9332 128.966 50.0582 128.966C49.0838 128.966 48.3878 128.25 48.3878 127.136V122.364H47.2145V127.216C47.2145 129.165 48.2486 130.099 49.6804 130.099C50.8338 130.099 51.5895 129.483 51.9474 128.707H52.027V130H53.2003V122.364H52.027V126.878ZM55.3493 130H56.5225V122.364H55.3493V130ZM55.9458 121.091C56.4032 121.091 56.7811 120.733 56.7811 120.295C56.7811 119.858 56.4032 119.5 55.9458 119.5C55.4885 119.5 55.1106 119.858 55.1106 120.295C55.1106 120.733 55.4885 121.091 55.9458 121.091ZM61.555 130.159C63.0266 130.159 63.5238 129.244 63.7823 128.827H63.9215V130H65.055V119.818H63.8817V123.577H63.7823C63.5238 123.179 63.0664 122.264 61.5749 122.264C59.646 122.264 58.3136 123.795 58.3136 126.202C58.3136 128.628 59.646 130.159 61.555 130.159ZM61.7141 129.105C60.2425 129.105 59.4869 127.812 59.4869 126.182C59.4869 124.571 60.2227 123.318 61.7141 123.318C63.146 123.318 63.9016 124.472 63.9016 126.182C63.9016 127.912 63.1261 129.105 61.7141 129.105ZM70.5685 130.159C72.1197 130.159 73.2532 129.384 73.6112 128.23L72.4776 127.912C72.1793 128.707 71.4883 129.105 70.5685 129.105C69.1914 129.105 68.2418 128.215 68.1871 126.58H73.7305V126.082C73.7305 123.239 72.0401 122.264 70.4492 122.264C68.381 122.264 67.0089 123.895 67.0089 126.241C67.0089 128.588 68.3612 130.159 70.5685 130.159ZM68.1871 125.565C68.2667 124.377 69.1069 123.318 70.4492 123.318C71.7219 123.318 72.5373 124.273 72.5373 125.565H68.1871ZM80.9244 124.074C80.5565 122.99 79.7312 122.264 78.2198 122.264C76.609 122.264 75.4158 123.179 75.4158 124.472C75.4158 125.526 76.0423 126.232 77.4442 126.56L78.717 126.858C79.4876 127.037 79.8505 127.405 79.8505 127.932C79.8505 128.588 79.1545 129.125 78.0607 129.125C77.1012 129.125 76.4996 128.712 76.2908 127.892L75.1772 128.17C75.4506 129.468 76.5195 130.159 78.0806 130.159C79.8555 130.159 81.0636 129.19 81.0636 127.872C81.0636 126.808 80.3974 126.137 79.0352 125.804L77.9016 125.526C76.9968 125.302 76.5891 124.999 76.5891 124.412C76.5891 123.756 77.2852 123.278 78.2198 123.278C79.244 123.278 79.6665 123.845 79.8704 124.372L80.9244 124.074ZM89.0144 130.179C90.3468 130.179 91.0428 129.463 91.2814 128.966H91.3411V130H92.5144V124.969C92.5144 122.543 90.665 122.264 89.6905 122.264C88.5371 122.264 87.2246 122.662 86.628 124.054L87.7417 124.452C88.0002 123.895 88.6117 123.298 89.7303 123.298C90.8091 123.298 91.3411 123.87 91.3411 124.849V124.889C91.3411 125.456 90.7644 125.406 89.3723 125.585C87.9554 125.769 86.4093 126.082 86.4093 127.832C86.4093 129.324 87.5627 130.179 89.0144 130.179ZM89.1934 129.125C88.2587 129.125 87.5826 128.707 87.5826 127.892C87.5826 126.997 88.3979 126.719 89.3127 126.599C89.8098 126.54 91.1422 126.401 91.3411 126.162V127.236C91.3411 128.19 90.5854 129.125 89.1934 129.125ZM95.8292 125.406C95.8292 124.074 96.6545 123.318 97.7781 123.318C98.8668 123.318 99.5281 124.029 99.5281 125.227V130H100.701V125.148C100.701 123.199 99.6623 122.264 98.1161 122.264C96.9627 122.264 96.2468 122.781 95.8888 123.557H95.7894V122.364H94.6559V130H95.8292V125.406ZM105.729 130.159C107.2 130.159 107.698 129.244 107.956 128.827H108.095V130H109.229V119.818H108.056V123.577H107.956C107.698 123.179 107.24 122.264 105.749 122.264C103.82 122.264 102.487 123.795 102.487 126.202C102.487 128.628 103.82 130.159 105.729 130.159ZM105.888 129.105C104.416 129.105 103.661 127.812 103.661 126.182C103.661 124.571 104.396 123.318 105.888 123.318C107.32 123.318 108.075 124.472 108.075 126.182C108.075 127.912 107.3 129.105 105.888 129.105ZM115.637 130H116.87V126.281H119.097C121.469 126.281 122.538 124.839 122.538 123.04C122.538 121.24 121.469 119.818 119.078 119.818H115.637V130ZM116.87 125.188V120.912H119.038C120.693 120.912 121.325 121.817 121.325 123.04C121.325 124.263 120.693 125.188 119.058 125.188H116.87ZM126.612 130.179C127.944 130.179 128.64 129.463 128.879 128.966H128.939V130H130.112V124.969C130.112 122.543 128.263 122.264 127.288 122.264C126.135 122.264 124.822 122.662 124.226 124.054L125.339 124.452C125.598 123.895 126.209 123.298 127.328 123.298C128.407 123.298 128.939 123.87 128.939 124.849V124.889C128.939 125.456 128.362 125.406 126.97 125.585C125.553 125.769 124.007 126.082 124.007 127.832C124.007 129.324 125.16 130.179 126.612 130.179ZM126.791 129.125C125.856 129.125 125.18 128.707 125.18 127.892C125.18 126.997 125.996 126.719 126.91 126.599C127.407 126.54 128.74 126.401 128.939 126.162V127.236C128.939 128.19 128.183 129.125 126.791 129.125ZM135.356 130.159C137.046 130.159 138.16 129.125 138.359 127.773H137.185C136.967 128.608 136.271 129.105 135.356 129.105C133.964 129.105 133.069 127.952 133.069 126.182C133.069 124.452 133.984 123.318 135.356 123.318C136.39 123.318 137.006 123.955 137.185 124.651H138.359C138.16 123.219 136.947 122.264 135.336 122.264C133.268 122.264 131.896 123.895 131.896 126.222C131.896 128.509 133.208 130.159 135.356 130.159ZM140.074 130H141.247V127.141L142.067 126.381L144.926 130H146.418L142.952 125.625L146.179 122.364H144.727L141.386 125.764H141.247V119.818H140.074V130ZM149.936 130.179C151.269 130.179 151.965 129.463 152.203 128.966H152.263V130H153.436V124.969C153.436 122.543 151.587 122.264 150.612 122.264C149.459 122.264 148.146 122.662 147.55 124.054L148.664 124.452C148.922 123.895 149.534 123.298 150.652 123.298C151.731 123.298 152.263 123.87 152.263 124.849V124.889C152.263 125.456 151.686 125.406 150.294 125.585C148.877 125.769 147.331 126.082 147.331 127.832C147.331 129.324 148.485 130.179 149.936 130.179ZM150.115 129.125C149.181 129.125 148.504 128.707 148.504 127.892C148.504 126.997 149.32 126.719 150.235 126.599C150.732 126.54 152.064 126.401 152.263 126.162V127.236C152.263 128.19 151.507 129.125 150.115 129.125ZM158.66 133.023C160.49 133.023 161.961 132.188 161.961 130.219V122.364H160.828V123.577H160.708C160.45 123.179 159.973 122.264 158.481 122.264C156.552 122.264 155.22 123.795 155.22 126.142C155.22 128.528 156.612 129.881 158.461 129.881C159.953 129.881 160.43 129.006 160.689 128.588H160.788V130.139C160.788 131.412 159.893 131.989 158.66 131.989C157.273 131.989 156.786 131.258 156.473 130.835L155.538 131.491C156.015 132.292 156.955 133.023 158.66 133.023ZM158.62 128.827C157.149 128.827 156.393 127.713 156.393 126.122C156.393 124.571 157.129 123.318 158.62 123.318C160.052 123.318 160.808 124.472 160.808 126.122C160.808 127.812 160.032 128.827 158.62 128.827ZM167.311 130.159C168.862 130.159 169.995 129.384 170.353 128.23L169.22 127.912C168.922 128.707 168.23 129.105 167.311 129.105C165.934 129.105 164.984 128.215 164.929 126.58H170.473V126.082C170.473 123.239 168.782 122.264 167.191 122.264C165.123 122.264 163.751 123.895 163.751 126.241C163.751 128.588 165.103 130.159 167.311 130.159ZM164.929 125.565C165.009 124.377 165.849 123.318 167.191 123.318C168.464 123.318 169.279 124.273 169.279 125.565H164.929ZM177.667 124.074C177.299 122.99 176.473 122.264 174.962 122.264C173.351 122.264 172.158 123.179 172.158 124.472C172.158 125.526 172.784 126.232 174.186 126.56L175.459 126.858C176.23 127.037 176.593 127.405 176.593 127.932C176.593 128.588 175.897 129.125 174.803 129.125C173.843 129.125 173.242 128.712 173.033 127.892L171.919 128.17C172.193 129.468 173.262 130.159 174.823 130.159C176.598 130.159 177.806 129.19 177.806 127.872C177.806 126.808 177.14 126.137 175.777 125.804L174.644 125.526C173.739 125.302 173.331 124.999 173.331 124.412C173.331 123.756 174.027 123.278 174.962 123.278C175.986 123.278 176.409 123.845 176.613 124.372L177.667 124.074Z" fill="black"/>
</svg>
