<?xml version="1.0"?>
<svg xmlns="http://www.w3.org/2000/svg" xmlns:xlink="http://www.w3.org/1999/xlink" xmlns:svgjs="http://svgjs.com/svgjs" version="1.1" width="512" height="512" x="0" y="0" viewBox="0 0 32 32" style="enable-background:new 0 0 512 512" xml:space="preserve" class=""><g><path xmlns="http://www.w3.org/2000/svg" d="m26 32h-20c-3.314 0-6-2.686-6-6v-20c0-3.314 2.686-6 6-6h20c3.314 0 6 2.686 6 6v20c0 3.314-2.686 6-6 6z" fill="#e8e7fe" data-original="#e3f8fa" style="" class=""/><path xmlns="http://www.w3.org/2000/svg" d="m22.167 8h-12.334c-1.011 0-1.833.822-1.833 1.833v12.333c0 1.012.822 1.834 1.833 1.834h12.333c1.012 0 1.834-.822 1.834-1.833v-12.334c0-1.011-.822-1.833-1.833-1.833z" fill="#b8b4fc" data-original="#26c6da" style="" class=""/><g xmlns="http://www.w3.org/2000/svg" fill="#8ce1eb"><path d="m18.667 19.333h-5.333c-.368 0-.667-.299-.667-.667s.298-.666.666-.666h5.333c.368 0 .667.299.667.667s-.298.666-.666.666z" fill="#d0cefd" data-original="#8ce1eb" style="" class=""/><path d="m18.667 16.667h-5.333c-.368 0-.667-.299-.667-.667s.298-.667.667-.667h5.333c.368 0 .667.299.667.667s-.299.667-.667.667z" fill="#d0cefd" data-original="#8ce1eb" style="" class=""/><path d="m18.667 14h-5.333c-.368 0-.667-.299-.667-.667s.298-.667.667-.667h5.333c.368 0 .667.299.667.667s-.299.667-.667.667z" fill="#d0cefd" data-original="#8ce1eb" style="" class=""/></g></g></svg>
